# Blender 3.4.0
# www.blender.org
mtllib airEnemy.mtl
o airEnemy
v -0.368955 -0.005523 -0.371544
v -0.307293 0.772611 -0.309882
v 0.369201 -0.005523 -0.371544
v 0.307539 0.772611 -0.309882
v -0.368955 -0.005523 0.366611
v -0.307293 0.772611 0.304949
v 0.369201 -0.005523 0.366611
v 0.307539 0.772611 0.304949
v -0.152655 0.732633 -0.172776
v -0.146564 0.732633 0.174425
v 0.177873 0.732633 0.178015
v 0.185094 0.732633 -0.184470
v -0.157192 0.840550 -0.177394
v -0.150938 0.840550 0.179152
v 0.182231 0.840550 0.182839
v 0.189647 0.840550 -0.189402
v -0.143588 0.954543 -0.163549
v -0.137825 0.954543 0.164979
v 0.169164 0.954543 0.168377
v 0.175997 0.954543 -0.174613
v -0.241397 0.963862 -0.263089
v -0.232101 0.963862 0.266870
v 0.263112 0.963862 0.272350
v 0.274135 0.963862 -0.280937
v -0.123056 1.111135 -0.142654
v -0.118035 1.111135 0.143591
v 0.149443 1.111135 0.146551
v 0.155397 1.111135 -0.152295
v -0.026365 1.229715 -0.044252
v -0.024837 1.229715 0.042866
v 0.056569 1.229715 0.043767
v 0.058381 1.229715 -0.047187
v -0.005749 1.348330 -0.023271
v -0.004965 1.348330 0.021389
v 0.036767 1.348330 0.021851
v 0.037696 1.348330 -0.024775
v -0.005749 1.415278 -0.083635
v -0.004965 1.415278 -0.038975
v 0.036767 1.415278 -0.038513
v 0.037696 1.415278 -0.085139
v 0.015937 1.435362 -0.164733
v -0.195503 0.595224 -0.198092
v 0.195749 0.595224 -0.198092
v 0.195749 0.595224 0.193159
v -0.195503 0.595224 0.193159
v -0.082230 0.889642 0.220192
v -0.042773 0.891189 0.218087
v -0.042933 0.828022 0.212033
v -0.084904 0.826622 0.214519
v -0.062502 0.904152 0.219139
v -0.063918 0.811700 0.213276
v -0.074411 0.814452 0.213897
v -0.072366 0.899690 0.219666
v -0.052638 0.900062 0.218613
v -0.053426 0.814739 0.212654
v -0.038109 0.859605 0.215060
v -0.091010 0.858132 0.217356
v -0.063210 0.857926 0.216208
v -0.073389 0.857071 0.216782
v -0.053032 0.857400 0.215634
v -0.039555 0.875397 0.216573
v -0.088069 0.873887 0.218774
v -0.062856 0.881039 0.217674
v -0.072877 0.878380 0.218224
v -0.052835 0.878731 0.217123
v -0.039582 0.843813 0.213546
v -0.089855 0.842377 0.215937
v -0.063564 0.834813 0.214742
v -0.073900 0.835762 0.215339
v -0.053229 0.836070 0.214144
v 0.056717 0.886883 0.234122
v 0.096174 0.888430 0.232016
v 0.096014 0.825263 0.225962
v 0.054043 0.823864 0.228448
v 0.076445 0.901393 0.233069
v 0.075028 0.808941 0.227205
v 0.064536 0.811693 0.227827
v 0.066581 0.896931 0.233595
v 0.086309 0.897303 0.232542
v 0.085521 0.811980 0.226584
v 0.100838 0.856846 0.228989
v 0.047937 0.855373 0.231285
v 0.075737 0.855167 0.230137
v 0.065558 0.854312 0.230711
v 0.085915 0.854641 0.229563
v 0.099392 0.872638 0.230503
v 0.050878 0.871128 0.232703
v 0.076091 0.878280 0.231603
v 0.066070 0.875621 0.232153
v 0.086112 0.875972 0.231053
v 0.099364 0.841054 0.227476
v 0.049092 0.839618 0.229867
v 0.075383 0.832054 0.228671
v 0.065047 0.833003 0.229269
v 0.085718 0.833311 0.228073
vn -0.0000 -0.5332 -0.8460
vn 0.8460 -0.5332 -0.0000
vn -0.0000 -0.5332 0.8460
vn -0.8460 -0.5332 -0.0000
vn -0.0000 -1.0000 -0.0000
vn 0.2503 0.9682 -0.0000
vn -0.9930 0.1164 0.0174
vn -0.3104 0.9506 -0.0000
vn 0.9990 -0.0412 0.0199
vn -0.9990 -0.0413 0.0175
vn -0.0346 -0.0442 -0.9984
vn -0.0111 -0.0442 0.9990
vn -0.0966 -0.9953 0.0017
vn -0.0343 0.1245 -0.9916
vn -0.0110 0.1246 0.9921
vn 0.9930 0.1163 0.0198
vn -0.0264 0.6455 -0.7633
vn -0.0031 -0.9959 -0.0902
vn -0.0010 -0.9959 0.0902
vn 0.0966 -0.9953 0.0019
vn 0.7806 0.6248 0.0156
vn -0.0085 0.6457 0.7636
vn 0.7850 0.6193 0.0156
vn -0.7849 0.6195 0.0138
vn -0.0340 0.1798 -0.9831
vn -0.7805 0.6250 0.0137
vn -0.0263 0.6510 -0.7586
vn -0.0084 0.6512 0.7589
vn -0.0257 -0.6694 -0.7424
vn -0.0109 0.1799 0.9836
vn 0.9856 0.1682 0.0196
vn -0.9856 0.1682 0.0173
vn 0.6521 0.7580 0.0130
vn -0.0082 0.6696 0.7427
vn 0.9996 0.0180 0.0199
vn -0.9997 0.0158 0.0175
vn -0.6559 0.7547 0.0115
vn -0.0084 -0.9701 -0.2425
vn -0.0017 0.9875 0.1574
vn -0.9608 0.2774 -0.0000
vn -0.0000 0.2774 0.9608
vn 0.9608 0.2774 -0.0000
vn -0.0000 0.2774 -0.9608
vn -0.0187 -0.0671 0.9976
vn 0.0661 -0.0701 0.9953
vn 0.0423 -0.0639 0.9971
vn 0.1102 -0.1180 0.9869
vn 0.0516 -0.0906 0.9945
vn 0.0717 -0.0642 0.9954
vn 0.0526 -0.0701 0.9962
vn 0.0564 -0.0688 0.9960
vn 0.1241 -0.0700 0.9898
vn 0.0386 -0.0700 0.9968
vn 0.0822 -0.0643 0.9945
vn 0.0182 -0.0917 0.9956
vn 0.0530 -0.1002 0.9936
vn 0.0616 -0.0641 0.9960
vn 0.0093 -0.0677 0.9977
vn 0.0615 -0.0641 0.9960
vn -0.0000 0.9538 -0.3004
vn 0.0032 0.9572 -0.2892
vn -0.0000 0.9528 0.3037
vn 0.2382 0.9712 -0.0042
vn 0.0094 0.9628 0.2702
vn -0.2895 0.9572 -0.0058
vn 0.0002 -0.0896 0.9960
vn 0.0776 -0.0643 0.9949
vn 0.0513 -0.0687 0.9963
vn 0.1474 -0.0703 0.9866
vn 0.0238 -0.0699 0.9973
vn 0.0619 -0.0689 0.9957
vn 0.0400 -0.0639 0.9972
vn 0.0267 -0.0946 0.9952
vn 0.0699 -0.1151 0.9909
vn 0.0268 -0.0637 0.9976
vn 0.0730 -0.0691 0.9949
vn -0.0094 -0.0696 0.9975
vn 0.0834 -0.0702 0.9940
vn 0.0654 -0.0642 0.9958
vn 0.0272 -0.0877 0.9958
vn 0.0729 -0.0691 0.9949
vt 0.813806 0.060555
vt 0.935277 0.060565
vt 0.813838 0.317061
vt 0.803562 0.188903
vt 0.813838 0.290394
vt 0.935277 0.182133
vt 0.570725 0.189053
vt 0.692278 0.060555
vt 0.702241 0.188902
vt 0.580818 0.060555
vt 0.914847 0.290019
vt 0.692278 0.317061
vt 0.813806 0.060555
vt 0.570725 0.189053
vt 0.581704 0.316273
vt 0.702311 0.188903
vt 0.813838 0.189278
vt 0.692170 0.189053
vt 0.692278 0.189053
vt 0.813806 0.182123
vt 0.682063 0.060555
vt 0.682858 0.316273
vt 0.914847 0.188903
vt 0.838781 0.267404
vt 0.133254 0.193697
vt 0.133254 0.197525
vt 0.115204 0.201921
vt 0.839782 0.210299
vt 0.133254 0.049367
vt 0.115515 0.047428
vt 0.893083 0.209510
vt 0.115204 0.336565
vt 0.894269 0.269121
vt 0.115515 0.198119
vt 0.133254 0.337985
vt 0.178107 0.195639
vt 0.177427 0.195639
vt 0.178107 0.047424
vt 0.070315 0.200181
vt 0.070315 0.338449
vt 0.071126 0.045434
vt 0.177427 0.339880
vt 0.071126 0.200181
vt 0.225490 0.189816
vt 0.225176 0.201086
vt 0.331037 0.752480
vt 0.023424 0.206064
vt 0.572403 0.814006
vt 0.225490 0.053249
vt 0.194633 0.756373
vt 0.023424 0.051337
vt 0.023424 0.333467
vt 0.572403 0.724683
vt 0.225176 0.333993
vt 0.023424 0.193924
vt 0.337101 0.885253
vt 0.472676 0.723789
vt 0.095132 0.796976
vt 0.367961 0.982660
vt 0.372080 0.711366
vt 0.152042 0.717645
vt 0.602217 0.841115
vt 0.735282 0.695584
vt 0.315434 0.796976
vt 0.602217 0.697026
vt 0.591420 0.695584
vt 0.025882 0.841832
vt 0.582357 0.982660
vt 0.381861 0.925545
vt 0.441344 0.695584
vt 0.025882 0.678899
vt 0.145779 0.858217
vt 0.415745 0.915009
vt 0.700359 0.655187
vt 0.264770 0.858217
vt 0.454182 0.749469
vt 0.072695 0.805355
vt 0.005923 0.847501
vt 0.622655 0.655187
vt 0.565187 0.749310
vt 0.531546 0.915009
vt 0.130158 0.847501
vt 0.072695 0.717350
vt 0.187161 0.907527
vt 0.454787 0.860456
vt 0.495009 0.795837
vt 0.223376 0.907527
vt 0.528794 0.795789
vt 0.047997 0.900774
vt 0.490031 0.860456
vt 0.085808 0.900774
vt 0.463068 0.810389
vt 0.174901 0.684738
vt 0.195984 0.956833
vt 0.503912 0.844433
vt 0.235081 0.702796
vt 0.214549 0.956833
vt 0.056951 0.950696
vt 0.521231 0.844408
vt 0.235449 0.685495
vt 0.481135 0.810389
vt 0.175487 0.702796
vt 0.076335 0.950696
vt 0.170897 0.984659
vt 0.280171 0.702796
vt 0.201086 0.684738
vt 0.261657 0.701803
vt 0.189462 0.984659
vt 0.262025 0.684502
vt 0.082026 0.978412
vt 0.201672 0.702796
vt 0.101409 0.978412
vt 0.134338 0.987762
vt 0.235081 0.693809
vt 0.314561 0.694454
vt 0.784930 0.218106
vt 0.785635 0.162450
vt 0.599569 0.087601
vt 0.721221 0.162450
vt 0.665209 0.285921
vt 0.663997 0.087601
vt 0.720498 0.218106
vt 0.600839 0.285921
vt 0.666488 0.983733
vt 0.682791 0.985811
vt 0.685162 0.959555
vt 0.667806 0.957453
vt 0.674137 0.990447
vt 0.677055 0.952050
vt 0.672602 0.952806
vt 0.670210 0.988244
vt 0.678377 0.989117
vt 0.681295 0.953686
vt 0.685938 0.972863
vt 0.664069 0.970312
vt 0.675596 0.971249
vt 0.671406 0.970525
vt 0.679836 0.971402
vt 0.684731 0.979370
vt 0.664680 0.976968
vt 0.674867 0.980848
vt 0.670808 0.979385
vt 0.679106 0.980260
vt 0.685938 0.966244
vt 0.665153 0.963811
vt 0.676325 0.961649
vt 0.672004 0.961665
vt 0.680566 0.962544
vt 0.694093 0.986084
vt 0.710396 0.988162
vt 0.712766 0.961906
vt 0.695411 0.959804
vt 0.701742 0.992798
vt 0.704660 0.954401
vt 0.700207 0.955157
vt 0.697815 0.990595
vt 0.705981 0.991468
vt 0.708900 0.956037
vt 0.713543 0.975213
vt 0.691674 0.972662
vt 0.703201 0.973599
vt 0.699011 0.972876
vt 0.707441 0.973753
vt 0.712336 0.981721
vt 0.692284 0.979318
vt 0.702471 0.983199
vt 0.698413 0.981735
vt 0.706711 0.982610
vt 0.713543 0.968595
vt 0.692758 0.966161
vt 0.703930 0.964000
vt 0.699609 0.964016
vt 0.708171 0.964895
s 0
usemtl airEnemy
f 2/4/1 43/119/1 42/117/1
f 4/10/2 44/121/2 43/118/2
f 8/22/3 45/123/3 44/120/3
f 6/16/4 42/116/4 45/122/4
f 7/20/5 1/2/5 3/6/5
f 9/24/6 2/5/6 6/17/6
f 14/38/7 17/44/7 13/36/7
f 12/33/8 8/23/8 4/11/8
f 12/34/9 15/41/9 11/30/9
f 9/25/10 14/38/10 13/36/10
f 12/35/11 13/37/11 16/42/11
f 11/32/12 14/39/12 10/27/12
f 17/46/13 22/61/13 21/60/13
f 13/37/14 20/54/14 16/42/14
f 14/39/15 19/52/15 18/47/15
f 15/41/16 20/55/16 19/51/16
f 21/59/17 28/81/17 24/68/17
f 20/56/18 21/60/18 24/69/18
f 19/53/19 22/62/19 18/48/19
f 20/57/20 23/65/20 19/53/20
f 27/78/21 32/91/21 31/89/21
f 22/63/22 27/79/22 26/74/22
f 23/67/23 28/83/23 27/77/23
f 22/64/24 25/72/24 21/58/24
f 29/85/25 36/101/25 32/90/25
f 26/75/26 29/84/26 25/72/26
f 25/73/27 32/90/27 28/81/27
f 26/76/28 31/88/28 30/86/28
f 36/102/29 37/106/29 40/111/29
f 30/86/30 35/99/30 34/95/30
f 31/89/31 36/103/31 35/98/31
f 30/87/32 33/94/32 29/84/32
f 39/110/33 40/112/33 41/113/33
f 34/96/34 39/109/34 38/107/34
f 36/103/35 39/110/35 35/98/35
f 33/94/36 38/108/36 37/104/36
f 37/105/37 38/107/37 41/115/37
f 40/111/38 37/106/38 41/114/38
f 38/107/39 39/109/39 41/115/39
f 45/122/40 1/3/40 5/12/40
f 44/120/41 5/14/41 7/18/41
f 3/7/42 44/121/42 7/19/42
f 42/117/43 3/8/43 1/1/43
f 69/147/44 49/127/44 52/130/44
f 68/146/45 55/133/45 70/148/45
f 68/146/46 52/130/46 51/129/46
f 70/148/47 48/126/47 66/144/47
f 61/139/48 60/138/48 56/134/48
f 64/142/49 58/136/49 63/141/49
f 65/143/50 58/136/50 60/138/50
f 62/140/51 59/137/51 64/142/51
f 46/124/52 64/142/52 53/131/52
f 54/132/53 63/141/53 65/143/53
f 53/131/54 63/141/54 50/128/54
f 47/125/55 65/143/55 61/139/55
f 60/138/56 66/144/56 56/134/56
f 59/137/57 68/146/57 58/136/57
f 58/136/50 70/148/50 60/138/50
f 59/137/58 67/145/58 69/147/58
f 94/172/44 74/152/44 77/155/44
f 93/171/45 80/158/45 95/173/45
f 93/171/46 77/155/46 76/154/46
f 95/173/47 73/151/47 91/169/47
f 86/164/48 85/163/48 81/159/48
f 89/167/49 83/161/49 88/166/49
f 90/168/50 83/161/50 85/163/50
f 87/165/51 84/162/51 89/167/51
f 71/149/52 89/167/52 78/156/52
f 79/157/53 88/166/53 90/168/53
f 78/156/54 88/166/54 75/153/54
f 72/150/55 90/168/55 86/164/55
f 85/163/56 91/169/56 81/159/56
f 84/162/59 93/171/59 83/161/59
f 83/161/50 95/173/50 85/163/50
f 84/162/58 92/170/58 94/172/58
f 2/4/1 4/9/1 43/119/1
f 4/10/2 8/21/2 44/121/2
f 8/22/3 6/15/3 45/123/3
f 6/16/4 2/4/4 42/116/4
f 7/20/5 5/13/5 1/2/5
f 6/17/60 8/23/60 11/31/60
f 6/17/61 11/31/61 10/28/61
f 12/33/62 4/11/62 2/5/62
f 6/17/63 10/28/63 9/24/63
f 9/24/64 12/33/64 2/5/64
f 14/38/7 18/49/7 17/44/7
f 12/33/65 11/31/65 8/23/65
f 12/34/9 16/43/9 15/41/9
f 9/25/10 10/29/10 14/38/10
f 12/35/11 9/26/11 13/37/11
f 11/32/12 15/40/12 14/39/12
f 17/46/13 18/50/13 22/61/13
f 13/37/14 17/45/14 20/54/14
f 14/39/15 15/40/15 19/52/15
f 15/41/16 16/43/16 20/55/16
f 21/59/17 25/73/17 28/81/17
f 20/56/18 17/46/18 21/60/18
f 19/53/19 23/65/19 22/62/19
f 20/57/20 24/70/20 23/65/20
f 27/78/21 28/82/21 32/91/21
f 22/63/22 23/66/22 27/79/22
f 23/67/23 24/71/23 28/83/23
f 22/64/24 26/75/24 25/72/24
f 29/85/25 33/92/25 36/101/25
f 26/75/26 30/87/26 29/84/26
f 25/73/27 29/85/27 32/90/27
f 26/76/28 27/80/28 31/88/28
f 36/102/29 33/93/29 37/106/29
f 30/86/30 31/88/30 35/99/30
f 31/89/31 32/91/31 36/103/31
f 30/87/32 34/97/32 33/94/32
f 34/96/34 35/100/34 39/109/34
f 36/103/35 40/112/35 39/110/35
f 33/94/36 34/97/36 38/108/36
f 45/122/40 42/116/40 1/3/40
f 44/120/41 45/123/41 5/14/41
f 3/7/42 43/118/42 44/121/42
f 42/117/43 43/119/43 3/8/43
f 69/147/66 67/145/66 49/127/66
f 68/146/67 51/129/67 55/133/67
f 68/146/68 69/147/68 52/130/68
f 70/148/69 55/133/69 48/126/69
f 61/139/70 65/143/70 60/138/70
f 64/142/71 59/137/71 58/136/71
f 65/143/72 63/141/72 58/136/72
f 62/140/73 57/135/73 59/137/73
f 46/124/74 62/140/74 64/142/74
f 54/132/75 50/128/75 63/141/75
f 53/131/76 64/142/76 63/141/76
f 47/125/77 54/132/77 65/143/77
f 60/138/78 70/148/78 66/144/78
f 59/137/68 69/147/68 68/146/68
f 58/136/79 68/146/79 70/148/79
f 59/137/80 57/135/80 67/145/80
f 94/172/66 92/170/66 74/152/66
f 93/171/67 76/154/67 80/158/67
f 93/171/68 94/172/68 77/155/68
f 95/173/69 80/158/69 73/151/69
f 86/164/70 90/168/70 85/163/70
f 89/167/71 84/162/71 83/161/71
f 90/168/72 88/166/72 83/161/72
f 87/165/73 82/160/73 84/162/73
f 71/149/74 87/165/74 89/167/74
f 79/157/75 75/153/75 88/166/75
f 78/156/81 89/167/81 88/166/81
f 72/150/77 79/157/77 90/168/77
f 85/163/78 95/173/78 91/169/78
f 84/162/68 94/172/68 93/171/68
f 83/161/79 93/171/79 95/173/79
f 84/162/80 82/160/80 92/170/80
