# Blender 3.4.0
# www.blender.org
mtllib sword.mtl
o sword
v -0.339601 0.208586 0.339601
v -0.207597 -0.259565 0.207597
v -0.339601 0.208586 -0.339601
v -0.207597 -0.259565 -0.207597
v 0.339601 0.208586 0.339601
v 0.207597 -0.259565 0.207597
v 0.339601 0.208586 -0.339601
v 0.207597 -0.259565 -0.207597
v -0.518695 0.000000 0.518695
v 0.518695 0.000000 -0.518695
v -0.518695 0.000000 -0.518695
v 0.518695 0.000000 0.518695
v -0.207597 -1.300814 0.207597
v -0.207597 -1.300814 -0.207597
v 0.207597 -1.300814 0.207597
v 0.207597 -1.300814 -0.207597
v -0.339601 0.422675 0.339601
v -0.339601 0.422675 -0.339601
v 0.339601 0.422675 0.339601
v 0.339601 0.422675 -0.339601
v -0.454255 0.587061 0.454255
v -0.454255 0.587061 -0.454255
v 0.454255 0.587061 0.454255
v 0.454255 0.587061 -0.454255
v -0.295991 0.802206 0.295991
v -0.295991 0.802206 -0.295991
v 0.295991 0.802206 0.295991
v 0.295991 0.802206 -0.295991
v -0.362041 4.061727 0.362041
v -0.362041 4.061727 -0.362041
v 0.362041 4.061727 0.362041
v 0.362041 4.061727 -0.362041
vn -0.0000 -0.0000 -1.0000
vn -0.0000 0.6514 -0.7587
vn 0.7587 0.6514 -0.0000
vn 1.0000 -0.0000 -0.0000
vn -0.7587 0.6514 -0.0000
vn -0.0000 0.6514 0.7587
vn -0.0000 -0.7678 0.6406
vn -0.6406 -0.7678 -0.0000
vn 0.6406 -0.7678 -0.0000
vn -0.0000 -0.7678 -0.6406
vn -0.0000 -1.0000 -0.0000
vn -1.0000 -0.0000 -0.0000
vn -0.0000 -0.0000 1.0000
vn -0.0000 -0.5721 -0.8202
vn -0.0000 0.5926 0.8055
vn -0.0000 -0.5721 0.8202
vn -0.8202 -0.5721 -0.0000
vn 0.8202 -0.5721 -0.0000
vn 0.9998 -0.0203 -0.0000
vn -0.8055 0.5926 -0.0000
vn 0.8055 0.5926 -0.0000
vn -0.0000 0.5926 -0.8055
vn -0.0000 1.0000 -0.0000
vn -0.0000 -0.0203 -0.9998
vn -0.0000 -0.0203 0.9998
vn -0.9998 -0.0203 -0.0000
vt 0.625000 0.500000
vt 0.375000 0.500000
vt 0.625000 0.750000
vt 0.375000 0.750000
vt 0.625000 0.250000
vt 0.375000 0.250000
vt 0.625000 1.000000
vt 0.625000 0.000000
vt 0.375000 0.000000
vt 0.375000 1.000000
vt 0.500000 0.500000
vt 0.500000 0.000000
vt 0.500000 1.000000
vt 0.500000 0.750000
vt 0.500000 0.250000
vt 0.375000 0.500000
vt 0.375000 0.750000
vt 0.125000 0.500000
vt 0.375000 0.250000
vt 0.375000 0.000000
vt 0.125000 0.750000
vt 0.375000 1.000000
vt 0.625000 0.500000
vt 0.625000 0.750000
vt 0.625000 0.250000
vt 0.625000 1.000000
vt 0.625000 0.000000
vt 0.625000 0.500000
vt 0.625000 0.750000
vt 0.625000 0.250000
vt 0.625000 1.000000
vt 0.625000 0.000000
vt 0.625000 0.500000
vt 0.625000 0.750000
vt 0.625000 0.250000
vt 0.625000 0.000000
vt 0.625000 1.000000
vt 0.625000 0.500000
vt 0.625000 0.750000
vt 0.875000 0.500000
vt 0.625000 0.250000
vt 0.625000 0.000000
vt 0.875000 0.750000
vt 0.625000 1.000000
s 0
usemtl sword
f 3/3/1 20/26/1 7/7/1
f 3/3/2 10/13/2 11/14/2
f 7/8/3 12/15/3 10/12/3
f 6/6/4 16/20/4 8/9/4
f 1/1/5 11/14/5 9/11/5
f 5/5/6 9/11/6 12/15/6
f 12/15/7 2/2/7 6/6/7
f 9/11/8 4/4/8 2/2/8
f 10/12/9 6/6/9 8/9/9
f 11/14/10 8/10/10 4/4/10
f 13/16/11 16/21/11 15/18/11
f 4/4/12 13/16/12 2/2/12
f 2/2/13 15/19/13 6/6/13
f 8/10/1 14/17/1 4/4/1
f 18/24/14 24/31/14 20/26/14
f 7/8/4 19/25/4 5/5/4
f 1/1/12 18/24/12 3/3/12
f 5/5/13 17/23/13 1/1/13
f 23/30/15 25/33/15 21/28/15
f 19/25/16 21/28/16 17/23/16
f 17/23/17 22/29/17 18/24/17
f 20/27/18 23/30/18 19/25/18
f 28/36/19 31/41/19 27/35/19
f 21/28/20 26/34/20 22/29/20
f 24/32/21 27/35/21 23/30/21
f 22/29/22 28/37/22 24/31/22
f 31/40/23 30/39/23 29/38/23
f 26/34/24 32/44/24 28/37/24
f 27/35/25 29/38/25 25/33/25
f 25/33/26 30/39/26 26/34/26
f 3/3/1 18/24/1 20/26/1
f 3/3/2 7/7/2 10/13/2
f 7/8/3 5/5/3 12/15/3
f 6/6/4 15/19/4 16/20/4
f 1/1/5 3/3/5 11/14/5
f 5/5/6 1/1/6 9/11/6
f 12/15/7 9/11/7 2/2/7
f 9/11/8 11/14/8 4/4/8
f 10/12/9 12/15/9 6/6/9
f 11/14/10 10/13/10 8/10/10
f 13/16/11 14/17/11 16/21/11
f 4/4/12 14/17/12 13/16/12
f 2/2/13 13/16/13 15/19/13
f 8/10/1 16/22/1 14/17/1
f 18/24/14 22/29/14 24/31/14
f 7/8/4 20/27/4 19/25/4
f 1/1/12 17/23/12 18/24/12
f 5/5/13 19/25/13 17/23/13
f 23/30/15 27/35/15 25/33/15
f 19/25/16 23/30/16 21/28/16
f 17/23/17 21/28/17 22/29/17
f 20/27/18 24/32/18 23/30/18
f 28/36/19 32/42/19 31/41/19
f 21/28/20 25/33/20 26/34/20
f 24/32/21 28/36/21 27/35/21
f 22/29/22 26/34/22 28/37/22
f 31/40/23 32/43/23 30/39/23
f 26/34/24 30/39/24 32/44/24
f 27/35/25 31/41/25 29/38/25
f 25/33/26 29/38/26 30/39/26
