# Blender 3.4.0
# www.blender.org
mtllib wall.mtl
o wall
v 50.000000 26.000000 -1.000000
v 50.000000 0.000000 -1.000000
v 50.000000 26.000000 1.000000
v 50.000000 0.000000 1.000000
v -50.000000 26.000000 -1.000000
v -50.000000 0.000000 -1.000000
v -50.000000 26.000000 1.000000
v -50.000000 0.000000 1.000000
vn -0.0000 1.0000 -0.0000
vn -0.0000 -0.0000 1.0000
vn -1.0000 -0.0000 -0.0000
vn -0.0000 -1.0000 -0.0000
vn 1.0000 -0.0000 -0.0000
vn -0.0000 -0.0000 -1.0000
vt 0.002958 0.000000
vt 0.059205 0.995709
vt 0.000000 1.000000
vt 0.059205 0.009916
vt 0.997396 0.000000
vt 0.000000 0.005771
vt 0.002958 0.116784
vt 0.997981 0.997273
vt 0.000354 0.995708
vt 0.997981 -0.001341
vt 0.997396 0.057726
vt 0.000354 0.009916
vt 1.000000 0.000000
vt 0.000000 0.995708
vt 0.997042 1.000000
vt 0.004854 0.000000
vt 0.997042 0.005771
vt 0.000000 0.007104
vt 1.000000 0.116785
vt 0.001493 0.997273
vt 0.052101 0.995709
vt 0.052101 0.007104
vt 0.001493 -0.001341
vt 0.004854 0.057726
s 0
usemtl wall
f 5/13/1 3/7/1 1/1/1
f 3/8/2 8/23/2 4/10/2
f 7/21/3 6/18/3 8/22/3
f 2/5/4 8/24/4 6/16/4
f 1/2/5 4/12/5 2/4/5
f 5/15/6 2/6/6 6/17/6
f 5/13/1 7/19/1 3/7/1
f 3/8/2 7/20/2 8/23/2
f 7/21/3 5/14/3 6/18/3
f 2/5/4 4/11/4 8/24/4
f 1/2/5 3/9/5 4/12/5
f 5/15/6 1/3/6 2/6/6
