# Blender 3.4.0
# www.blender.org
mtllib wallFence.mtl
o wallFence
v 1.000000 26.000000 -50.000000
v 1.000000 0.000000 -50.000000
v 1.000000 26.000000 50.000000
v 1.000000 0.000000 50.000000
v -1.000000 26.000000 -50.000000
v -1.000000 0.000000 -50.000000
v -1.000000 26.000000 50.000000
v -1.000000 0.000000 50.000000
v -1.000000 12.000001 13.000000
v -1.000000 0.000000 13.000000
v -1.000000 12.000001 -13.000000
v -1.000000 0.000000 -13.000000
v 1.000000 12.000001 -13.000000
v 1.000000 0.000000 13.000000
v 1.000000 12.000001 13.000000
v 1.000000 0.000000 -13.000000
v -1.284290 11.004491 11.317225
v -1.284290 13.004491 11.317225
v -1.284290 11.004491 -11.317225
v -1.284290 13.004491 -11.317225
v 1.284290 11.004491 11.317225
v 1.284290 13.004491 11.317225
v 1.284290 11.004491 -11.317225
v 1.284290 13.004491 -11.317225
v -1.500000 10.482602 -11.298947
v -1.500000 13.482602 -11.298947
v -1.500000 10.482602 -14.298950
v -1.500000 13.482602 -14.298950
v 1.500000 10.482602 -11.298947
v 1.500000 13.482602 -11.298947
v 1.500000 10.482602 -14.298950
v 1.500000 13.482602 -14.298950
v -1.477645 10.452641 14.350695
v -1.477645 13.452641 14.350695
v -1.477645 10.452641 11.350693
v -1.477645 13.452641 11.350693
v 1.522355 10.452641 14.350695
v 1.522355 13.452641 14.350695
v 1.522355 10.452641 11.350693
v 1.522355 13.452641 11.350693
v -1.326799 -0.005004 -11.813584
v -1.326799 10.462320 -11.813584
v -1.326799 -0.005004 -13.803344
v -1.326799 10.462320 -13.803344
v 1.241781 -0.005004 -11.813584
v 1.241781 10.462320 -11.813584
v 1.241781 -0.005004 -13.803344
v 1.241781 10.462320 -13.803344
v -1.249271 -0.014812 13.904397
v -1.249271 10.452511 13.904397
v -1.249271 -0.014812 11.914637
v -1.249271 10.452511 11.914637
v 1.319309 -0.014812 13.904397
v 1.319309 10.452511 13.904397
v 1.319309 -0.014812 11.914637
v 1.319309 10.452511 11.914637
v -0.112954 11.006426 11.901598
v -0.112954 -0.067474 11.901598
v -0.112954 11.006426 11.292665
v -0.112954 -0.067474 11.292665
v -0.112954 11.006426 9.808593
v -0.112954 -0.067474 9.808593
v -0.112954 11.006426 9.199660
v -0.112954 -0.067474 9.199660
v -0.112954 11.006426 7.808594
v -0.112954 -0.067474 7.808594
v -0.112954 11.006426 7.199661
v -0.112954 -0.067474 7.199661
v -0.112954 11.006426 5.715875
v -0.112954 -0.067474 5.715875
v -0.112954 11.006426 5.106942
v -0.112954 -0.067474 5.106942
v -0.112954 11.006426 3.622802
v -0.112954 -0.067474 3.622802
v -0.112954 11.006426 3.013869
v -0.112954 -0.067474 3.013869
v -0.112954 11.006426 1.466886
v -0.112954 -0.067474 1.466886
v -0.112954 11.006426 0.857953
v -0.112954 -0.067474 0.857953
v -0.112954 11.006426 -0.653322
v -0.112954 -0.067474 -0.653322
v -0.112954 11.006426 -1.262255
v -0.112954 -0.067474 -1.262255
v -0.112954 11.006426 -2.742309
v -0.112954 -0.067474 -2.742309
v -0.112954 11.006426 -3.351243
v -0.112954 -0.067474 -3.351243
v -0.112954 11.006426 -4.890018
v -0.112954 -0.067474 -4.890018
v -0.112954 11.006426 -5.498952
v -0.112954 -0.067474 -5.498952
v -0.112954 11.006426 -7.095261
v -0.112954 -0.067474 -7.095261
v -0.112954 11.006426 -7.704194
v -0.112954 -0.067474 -7.704194
v -0.112954 11.006426 -9.258076
v -0.112954 -0.067474 -9.258076
v -0.112954 11.006426 -9.867009
v -0.112954 -0.067474 -9.867009
v -0.112954 11.006426 -11.223196
v -0.112954 -0.067474 -11.223196
v -0.112954 11.006426 -11.832129
v -0.112954 -0.067474 -11.832129
v -0.150624 -0.035921 7.183389
v -0.195203 11.101870 3.757636
v -0.154996 5.329704 7.335333
v -0.154996 5.531274 6.924871
v -0.154996 5.353594 4.064828
v -0.154996 5.575354 3.636859
v -0.302308 -0.068975 11.533323
v -0.302308 -0.068975 11.253366
v -0.302308 4.573662 9.207170
v -0.302308 4.876533 8.630782
v -0.302308 4.640807 5.830099
v -0.302308 4.943882 5.227390
v -0.196858 11.101717 3.528410
v -0.170965 -0.030228 7.344869
v -0.103950 11.070256 3.348966
v -0.114013 11.046486 3.510831
v -0.568716 -0.113115 -7.040996
v -0.532105 10.992579 -3.512485
v -0.557583 5.253674 -7.143428
v -0.559776 5.451453 -6.731133
v -0.576791 5.247427 -3.872899
v -0.579065 5.465234 -3.442911
v -0.391488 -0.106261 -11.390083
v -0.393135 -0.108840 -11.110141
v -0.400092 4.514743 -9.021260
v -0.403150 4.812289 -8.442114
v -0.419880 4.550768 -5.643771
v -0.423093 4.848276 -5.038304
v -0.531799 10.990313 -3.283264
v -0.547419 -0.105957 -7.202294
v -0.625795 10.957305 -3.104666
v -0.614806 10.935017 -3.266682
vn -0.0000 1.0000 -0.0000
vn -0.0000 -0.0000 1.0000
vn -1.0000 -0.0000 -0.0000
vn -0.0000 -1.0000 -0.0000
vn 1.0000 -0.0000 -0.0000
vn -0.0000 -0.0000 -1.0000
vn 0.9899 0.0715 0.1222
vn 0.9999 -0.0107 -0.0052
vn 0.9997 -0.0228 -0.0072
vn 0.9891 -0.0738 0.1273
vn 0.9967 -0.0358 0.0725
vn 1.0000 -0.0011 0.0059
vn 0.9996 0.0282 -0.0092
vn 1.0000 0.0012 0.0006
vn 0.9972 0.0341 0.0670
vn 0.9995 -0.0292 -0.0153
vn 1.0000 -0.0023 0.0065
vn 1.0000 0.0096 0.0007
vn 0.9998 0.0218 -0.0011
vt 0.003317 0.216154
vt 0.216339 0.216154
vt 0.429130 0.003132
vt 0.373975 0.642591
vt 0.216339 0.003132
vt 0.429130 0.216124
vt 0.003317 0.429176
vt 0.428997 0.216486
vt 0.003317 0.216154
vt 0.428997 0.429475
vt 0.216339 0.642591
vt 0.003317 0.003132
vt 0.216339 0.216154
vt 0.428997 0.216291
vt 0.216339 0.003300
vt 0.216339 0.216291
vt 0.428997 0.429238
vt 0.373975 0.429569
vt 0.216339 0.429176
vt 0.641735 0.216291
vt 0.216339 0.216623
vt 0.641735 0.429280
vt 0.216339 0.429569
vt 0.527433 0.003210
vt 0.295022 0.331164
vt 0.625736 0.003132
vt 0.295022 0.429447
vt 0.295157 0.429569
vt 0.429130 0.003132
vt 0.681121 0.003132
vt 0.350313 0.331078
vt 0.625736 0.215960
vt 0.295157 0.429569
vt 0.350313 0.429361
vt 0.527433 0.215870
vt 0.137521 0.101450
vt 0.625736 0.003222
vt 0.681121 0.216154
vt 0.295157 0.642591
vt 0.082135 0.003132
vt 0.429130 0.215923
vt 0.082135 0.101450
vt 0.527433 0.216001
vt 0.625736 0.216154
vt 0.527433 0.003132
vt 0.295157 0.642591
vt 0.137521 0.003132
vt 0.972656 0.719869
vt 0.873551 0.783665
vt 0.901403 0.664726
vt 0.994200 0.719903
vt 0.895099 0.783685
vt 0.900124 0.782795
vt 0.871757 0.665759
vt 0.964819 0.664726
vt 0.972656 0.783177
vt 0.994200 0.783210
vt 0.893306 0.665776
vt 0.963540 0.782795
vt 0.873551 0.732810
vt 0.994207 0.656454
vt 0.901403 0.722261
vt 0.972656 0.656454
vt 0.895099 0.732830
vt 0.900124 0.731461
vt 0.994207 0.719869
vt 0.871757 0.724454
vt 0.964819 0.722261
vt 0.963540 0.731461
vt 0.893306 0.724471
vt 0.972656 0.719869
vt 0.925595 0.870197
vt 0.880769 0.870772
vt 0.925061 0.875252
vt 0.925595 0.837881
vt 0.913091 0.870801
vt 0.915401 0.907360
vt 0.880560 0.875773
vt 0.933466 0.875252
vt 0.933986 0.870184
vt 0.933986 0.837868
vt 0.912883 0.875798
vt 0.923807 0.907360
vt 0.880769 0.837791
vt 0.914961 0.838095
vt 0.925061 0.907816
vt 0.914961 0.870423
vt 0.913091 0.837821
vt 0.915401 0.875773
vt 0.923366 0.838095
vt 0.880560 0.906905
vt 0.933466 0.907816
vt 0.923807 0.875773
vt 0.912883 0.906930
vt 0.923366 0.870423
vt 0.914795 0.948638
vt 0.880086 0.948904
vt 0.925591 0.953859
vt 0.914795 0.916322
vt 0.912409 0.948934
vt 0.917186 0.993259
vt 0.882609 0.953859
vt 0.933996 0.953859
vt 0.923186 0.948625
vt 0.923186 0.916309
vt 0.914932 0.953884
vt 0.925591 0.993259
vt 0.880086 0.913970
vt 0.925304 0.916148
vt 0.925591 0.993259
vt 0.925304 0.948475
vt 0.912409 0.914000
vt 0.917186 0.953859
vt 0.933709 0.916148
vt 0.882609 0.992803
vt 0.933996 0.993259
vt 0.925591 0.953859
vt 0.914932 0.992829
vt 0.933709 0.948475
vt 0.970214 0.440048
vt 0.935586 0.338235
vt 0.953516 0.327657
vt 0.970214 0.327293
vt 0.900265 0.338054
vt 0.959091 0.440172
vt 0.860105 0.337363
vt 0.959091 0.327657
vt 0.975780 0.440039
vt 0.975780 0.327284
vt 0.895426 0.337520
vt 0.964665 0.440172
vt 0.935586 0.430792
vt 0.982752 0.327683
vt 0.953516 0.440172
vt 0.982751 0.440478
vt 0.900265 0.430765
vt 0.959091 0.327657
vt 0.988326 0.327683
vt 0.860105 0.430687
vt 0.959091 0.440172
vt 0.964665 0.327657
vt 0.895426 0.430710
vt 0.988326 0.440478
vt 0.990525 0.536075
vt 0.950081 0.608237
vt 0.988293 0.541039
vt 0.990525 0.494629
vt 0.976047 0.608340
vt 0.979819 0.608750
vt 0.916551 0.518808
vt 0.993868 0.541039
vt 0.996091 0.536066
vt 0.996091 0.494620
vt 0.947169 0.518897
vt 0.985394 0.608750
vt 0.950081 0.518627
vt 0.979753 0.493683
vt 0.988293 0.607370
vt 0.979753 0.535168
vt 0.976047 0.518730
vt 0.979819 0.539299
vt 0.985327 0.493683
vt 0.916551 0.608507
vt 0.993868 0.607370
vt 0.985394 0.539299
vt 0.947169 0.608596
vt 0.985327 0.535168
vt 0.991617 0.966887
vt 0.991617 0.847556
vt 0.993324 0.966887
vt 0.993324 0.847556
vt 0.984793 0.966887
vt 0.984793 0.847556
vt 0.986499 0.966887
vt 0.986499 0.847556
vt 0.986499 0.966887
vt 0.986499 0.847556
vt 0.988205 0.966887
vt 0.988205 0.847556
vt 0.972908 0.997755
vt 0.972908 0.977543
vt 0.974614 0.997755
vt 0.974614 0.977543
vt 0.983087 0.966887
vt 0.983087 0.847556
vt 0.984793 0.966887
vt 0.984793 0.847556
vt 0.971202 0.997755
vt 0.971202 0.977543
vt 0.972908 0.997755
vt 0.972908 0.977543
vt 0.978027 0.997755
vt 0.978027 0.977543
vt 0.979733 0.997755
vt 0.979733 0.977543
vt 0.981381 0.966887
vt 0.981381 0.847556
vt 0.983087 0.966887
vt 0.983087 0.847556
vt 0.974614 0.997755
vt 0.974614 0.977543
vt 0.976321 0.997755
vt 0.976321 0.977543
vt 0.988205 0.966887
vt 0.988205 0.847556
vt 0.989911 0.966887
vt 0.989911 0.847556
vt 0.976321 0.997755
vt 0.976321 0.977543
vt 0.978027 0.997755
vt 0.978027 0.977543
vt 0.989911 0.966887
vt 0.989911 0.847556
vt 0.991617 0.966887
vt 0.991617 0.847556
vt 0.986001 0.980852
vt 0.995331 0.974534
vt 0.987901 0.980852
vt 0.985990 0.979412
vt 0.987761 0.981355
vt 0.988100 0.978152
vt 0.985957 0.994285
vt 0.985775 0.970248
vt 0.986001 0.994841
vt 0.988100 0.968927
vt 0.993464 0.994649
vt 0.993127 0.994622
vt 0.995331 0.986378
vt 0.994941 0.985797
vt 0.991330 0.985931
vt 0.990909 0.985347
vt 0.995054 0.974512
vt 0.984112 0.980866
vt 0.987901 0.995276
vt 0.986987 0.995175
vt 0.982139 0.994749
vt 0.996501 0.975344
vt 0.983665 0.979502
vt 0.986981 0.980852
vt 0.986987 0.981355
vt 0.985775 0.978284
vt 0.984112 0.981403
vt 0.983450 0.970200
vt 0.983989 0.980852
vt 0.985775 0.968927
vt 0.994363 0.995444
vt 0.994019 0.995418
vt 0.996501 0.987215
vt 0.996120 0.986639
vt 0.992430 0.986783
vt 0.992017 0.986203
vt 0.996225 0.975324
vt 0.984112 0.994787
vt 0.986987 0.995261
vt 0.986001 0.995147
s 0
usemtl wallFence
f 5/13/1 3/7/1 1/1/1
f 3/8/2 8/22/2 4/10/2
f 7/21/3 5/14/3 9/25/3
f 4/11/4 10/28/4 14/39/4
f 6/18/4 16/46/4 12/33/4
f 1/2/5 3/9/5 13/36/5
f 5/15/6 2/6/6 6/16/6
f 18/51/3 19/56/3 17/48/3
f 20/58/6 23/67/6 19/54/6
f 24/71/5 21/61/5 23/66/5
f 22/64/2 17/49/2 21/60/2
f 23/68/4 17/50/4 19/55/4
f 20/59/1 22/65/1 24/69/1
f 26/75/3 27/80/3 25/72/3
f 28/82/6 31/91/6 27/78/6
f 32/95/5 29/85/5 31/90/5
f 30/88/2 25/73/2 29/84/2
f 31/92/4 25/74/4 27/79/4
f 28/83/1 30/89/1 32/93/1
f 34/99/3 35/104/3 33/96/3
f 36/106/6 39/115/6 35/102/6
f 40/119/5 37/109/5 39/114/5
f 38/112/2 33/97/2 37/108/2
f 39/116/4 33/98/4 35/103/4
f 36/107/1 38/113/1 40/117/1
f 42/123/3 43/128/3 41/120/3
f 44/130/6 47/139/6 43/126/6
f 48/143/5 45/133/5 47/138/5
f 46/136/2 41/121/2 45/132/2
f 47/140/4 41/122/4 43/127/4
f 44/131/1 46/137/1 48/141/1
f 50/147/3 51/152/3 49/144/3
f 52/154/6 55/163/6 51/150/6
f 56/167/5 53/157/5 55/162/5
f 54/160/2 49/145/2 53/156/2
f 55/164/4 49/146/4 51/151/4
f 52/155/1 54/161/1 56/165/1
f 58/169/5 59/170/5 57/168/5
f 62/173/5 63/174/5 61/172/5
f 66/177/5 67/178/5 65/176/5
f 70/181/5 71/182/5 69/180/5
f 74/185/5 75/186/5 73/184/5
f 78/189/5 79/190/5 77/188/5
f 82/193/5 83/194/5 81/192/5
f 86/197/5 87/198/5 85/196/5
f 90/201/5 91/202/5 89/200/5
f 94/205/5 95/206/5 93/204/5
f 98/209/5 99/210/5 97/208/5
f 102/213/5 103/214/5 101/212/5
f 105/216/7 109/222/7 118/233/7
f 108/220/8 120/235/8 107/218/8
f 109/223/5 108/221/5 107/219/5
f 115/230/5 112/227/5 116/231/5
f 106/217/9 114/229/9 117/232/9
f 115/230/5 114/229/5 113/228/5
f 125/242/10 121/236/10 134/253/10
f 124/240/11 136/255/11 135/254/11
f 124/241/12 125/243/12 123/238/12
f 131/250/12 128/247/12 127/246/12
f 122/237/13 130/249/13 129/248/13
f 130/249/12 131/250/12 129/248/12
f 5/13/1 7/19/1 3/7/1
f 3/8/2 7/20/2 8/22/2
f 10/27/3 8/23/3 7/21/3
f 5/14/3 6/17/3 12/34/3
f 5/14/3 12/34/3 11/31/3
f 9/25/3 10/27/3 7/21/3
f 5/14/3 11/31/3 9/25/3
f 4/11/4 8/23/4 10/28/4
f 6/18/4 2/4/4 16/46/4
f 13/36/5 16/47/5 2/5/5
f 3/9/5 4/12/5 14/40/5
f 3/9/5 14/40/5 15/42/5
f 13/36/5 2/5/5 1/2/5
f 3/9/5 15/42/5 13/36/5
f 5/15/6 1/3/6 2/6/6
f 18/51/3 20/57/3 19/56/3
f 20/58/6 24/70/6 23/67/6
f 24/71/5 22/63/5 21/61/5
f 22/64/2 18/52/2 17/49/2
f 23/68/4 21/62/4 17/50/4
f 20/59/1 18/53/1 22/65/1
f 26/75/3 28/81/3 27/80/3
f 28/82/6 32/94/6 31/91/6
f 32/95/5 30/87/5 29/85/5
f 30/88/2 26/76/2 25/73/2
f 31/92/4 29/86/4 25/74/4
f 28/83/1 26/77/1 30/89/1
f 34/99/3 36/105/3 35/104/3
f 36/106/6 40/118/6 39/115/6
f 40/119/5 38/111/5 37/109/5
f 38/112/2 34/100/2 33/97/2
f 39/116/4 37/110/4 33/98/4
f 36/107/1 34/101/1 38/113/1
f 42/123/3 44/129/3 43/128/3
f 44/130/6 48/142/6 47/139/6
f 48/143/5 46/135/5 45/133/5
f 46/136/2 42/124/2 41/121/2
f 47/140/4 45/134/4 41/122/4
f 44/131/1 42/125/1 46/137/1
f 50/147/3 52/153/3 51/152/3
f 52/154/6 56/166/6 55/163/6
f 56/167/5 54/159/5 53/157/5
f 54/160/2 50/148/2 49/145/2
f 55/164/4 53/158/4 49/146/4
f 52/155/1 50/149/1 54/161/1
f 58/169/5 60/171/5 59/170/5
f 62/173/5 64/175/5 63/174/5
f 66/177/5 68/179/5 67/178/5
f 70/181/5 72/183/5 71/182/5
f 74/185/5 76/187/5 75/186/5
f 78/189/5 80/191/5 79/190/5
f 82/193/5 84/195/5 83/194/5
f 86/197/5 88/199/5 87/198/5
f 90/201/5 92/203/5 91/202/5
f 94/205/5 96/207/5 95/206/5
f 98/209/5 100/211/5 99/210/5
f 102/213/5 104/215/5 103/214/5
f 105/216/14 110/224/14 109/222/14
f 108/220/15 119/234/15 120/235/15
f 109/223/5 110/225/5 108/221/5
f 115/230/5 111/226/5 112/227/5
f 106/217/16 113/228/16 114/229/16
f 115/230/5 116/231/5 114/229/5
f 125/242/17 126/244/17 121/236/17
f 124/240/18 123/239/18 136/255/18
f 124/241/12 126/245/12 125/243/12
f 131/250/12 132/251/12 128/247/12
f 122/237/19 133/252/19 130/249/19
f 130/249/12 132/251/12 131/250/12
usemtl 
f 13/37/2 12/35/2 16/45/2
f 15/43/6 10/29/6 9/24/6
f 13/38/4 9/26/4 11/30/4
f 13/37/2 11/32/2 12/35/2
f 15/43/6 14/41/6 10/29/6
f 13/38/4 15/44/4 9/26/4
