{
    "asset" : {
        "generator" : "Khronos glTF Blender I/O v3.4.49",
        "version" : "2.0"
    },
    "scene" : 0,
    "scenes" : [
        {
            "name" : "Scene",
            "nodes" : [
                5
            ]
        }
    ],
    "nodes" : [
        {
            "name" : "Bone.003",
            "rotation" : [
                -1.2434497875801753e-14,
                -1.4210854715202004e-14,
                -1.6698641720509483e-22,
                1
            ],
            "translation" : [
                -4.1293104575168978e-22,
                1.137532353401184,
                2.842170943040401e-14
            ]
        },
        {
            "children" : [
                0
            ],
            "name" : "Bone.002",
            "rotation" : [
                2.6645352591003757e-14,
                2.842170943040401e-14,
                3.2621852103848438e-22,
                1
            ],
            "translation" : [
                -1.1646873671137647e-22,
                1.1944091320037842,
                1.4210854715202004e-14
            ]
        },
        {
            "children" : [
                1
            ],
            "name" : "Bone.001",
            "rotation" : [
                -1.4210854715202004e-14,
                -1.4210854715202004e-14,
                -1.3874916003537044e-22,
                1
            ],
            "translation" : [
                2.1175821157002612e-22,
                1.0000003576278687,
                -1.4210854715202004e-14
            ]
        },
        {
            "children" : [
                2
            ],
            "name" : "Bone",
            "rotation" : [
                6.339203650895797e-08,
                7.574776361707336e-09,
                5.088690720462098e-16,
                1
            ],
            "translation" : [
                0,
                -5.960464477539063e-08,
                0
            ]
        },
        {
            "mesh" : 0,
            "name" : "Cube.001",
            "skin" : 0
        },
        {
            "children" : [
                4,
                3
            ],
            "name" : "\u30a2\u30fc\u30de\u30c1\u30e5\u30a2",
            "scale" : [
                1.7581915855407715,
                1.7581915855407715,
                1.7581915855407715
            ],
            "translation" : [
                0,
                -0.8274660110473633,
                0
            ]
        }
    ],
    "materials" : [
        {
            "doubleSided" : true,
            "name" : "Material.001",
            "pbrMetallicRoughness" : {
                "baseColorTexture" : {
                    "index" : 0
                },
                "metallicFactor" : 0,
                "roughnessFactor" : 0.5
            }
        }
    ],
    "meshes" : [
        {
            "name" : "Cube.001",
            "primitives" : [
                {
                    "attributes" : {
                        "POSITION" : 0,
                        "TEXCOORD_0" : 1,
                        "NORMAL" : 2,
                        "JOINTS_0" : 3,
                        "WEIGHTS_0" : 4
                    },
                    "indices" : 5,
                    "material" : 0
                }
            ]
        }
    ],
    "textures" : [
        {
            "sampler" : 0,
            "source" : 0
        }
    ],
    "images" : [
        {
            "mimeType" : "image/jpeg",
            "name" : "boneTest",
            "uri" : "boneTest.jpg"
        }
    ],
    "skins" : [
        {
            "inverseBindMatrices" : 6,
            "joints" : [
                3,
                2,
                1,
                0
            ],
            "name" : "\u30a2\u30fc\u30de\u30c1\u30e5\u30a2"
        }
    ],
    "accessors" : [
        {
            "bufferView" : 0,
            "componentType" : 5126,
            "count" : 90,
            "max" : [
                1,
                6.999999046325684,
                1
            ],
            "min" : [
                -1,
                -1,
                -1
            ],
            "type" : "VEC3"
        },
        {
            "bufferView" : 1,
            "componentType" : 5126,
            "count" : 90,
            "type" : "VEC2"
        },
        {
            "bufferView" : 2,
            "componentType" : 5126,
            "count" : 90,
            "type" : "VEC3"
        },
        {
            "bufferView" : 3,
            "componentType" : 5121,
            "count" : 90,
            "type" : "VEC4"
        },
        {
            "bufferView" : 4,
            "componentType" : 5126,
            "count" : 90,
            "type" : "VEC4"
        },
        {
            "bufferView" : 5,
            "componentType" : 5123,
            "count" : 108,
            "type" : "SCALAR"
        },
        {
            "bufferView" : 6,
            "componentType" : 5126,
            "count" : 4,
            "type" : "MAT4"
        }
    ],
    "bufferViews" : [
        {
            "buffer" : 0,
            "byteLength" : 1080,
            "byteOffset" : 0,
            "target" : 34962
        },
        {
            "buffer" : 0,
            "byteLength" : 720,
            "byteOffset" : 1080,
            "target" : 34962
        },
        {
            "buffer" : 0,
            "byteLength" : 1080,
            "byteOffset" : 1800,
            "target" : 34962
        },
        {
            "buffer" : 0,
            "byteLength" : 360,
            "byteOffset" : 2880,
            "target" : 34962
        },
        {
            "buffer" : 0,
            "byteLength" : 1440,
            "byteOffset" : 3240,
            "target" : 34962
        },
        {
            "buffer" : 0,
            "byteLength" : 216,
            "byteOffset" : 4680,
            "target" : 34963
        },
        {
            "buffer" : 0,
            "byteLength" : 256,
            "byteOffset" : 4896
        }
    ],
    "samplers" : [
        {
            "magFilter" : 9729,
            "minFilter" : 9987
        }
    ],
    "buffers" : [
        {
            "byteLength" : 5152,
            "uri" : "boneTest.bin"
        }
    ]
}
