# Blender 3.3.1
# www.blender.org
mtllib wave.mtl
o 円柱
v 0.000000 -0.243086 -0.868847
v -0.000000 0.243086 -1.409605
v 0.169504 -0.243086 -0.852152
v 0.275000 0.243086 -1.382520
v 0.332493 -0.243086 -0.802710
v 0.539432 0.243086 -1.302305
v 0.482706 -0.243086 -0.722420
v 0.783135 0.243086 -1.172044
v 0.614368 -0.243086 -0.614368
v 0.996741 0.243086 -0.996741
v 0.722420 -0.243086 -0.482706
v 1.172044 0.243086 -0.783135
v 0.802710 -0.243086 -0.332493
v 1.302305 0.243086 -0.539432
v 0.852152 -0.243086 -0.169504
v 1.382520 0.243086 -0.275000
v 0.868847 -0.243086 -0.000000
v 1.409605 0.243086 0.000000
v 0.852152 -0.243086 0.169504
v 1.382520 0.243086 0.275000
v 0.802710 -0.243086 0.332493
v 1.302305 0.243086 0.539432
v 0.722420 -0.243086 0.482706
v 1.172044 0.243086 0.783135
v 0.614368 -0.243086 0.614368
v 0.996741 0.243086 0.996741
v 0.482706 -0.243086 0.722420
v 0.783135 0.243086 1.172044
v 0.332493 -0.243086 0.802710
v 0.539432 0.243086 1.302305
v 0.169504 -0.243086 0.852152
v 0.275000 0.243086 1.382520
v 0.000000 -0.243086 0.868847
v -0.000000 0.243086 1.409605
v -0.169504 -0.243086 0.852152
v -0.275000 0.243086 1.382520
v -0.332493 -0.243086 0.802710
v -0.539432 0.243086 1.302305
v -0.482706 -0.243086 0.722420
v -0.783135 0.243086 1.172044
v -0.614368 -0.243086 0.614368
v -0.996741 0.243086 0.996741
v -0.722420 -0.243086 0.482706
v -1.172044 0.243086 0.783135
v -0.802710 -0.243086 0.332493
v -1.302305 0.243086 0.539432
v -0.852152 -0.243086 0.169504
v -1.382520 0.243086 0.275000
v -0.868847 -0.243086 -0.000000
v -1.409605 0.243086 0.000000
v -0.852152 -0.243086 -0.169504
v -1.382520 0.243086 -0.275000
v -0.802710 -0.243086 -0.332493
v -1.302305 0.243086 -0.539432
v -0.722420 -0.243086 -0.482706
v -1.172044 0.243086 -0.783135
v -0.614368 -0.243086 -0.614368
v -0.996741 0.243086 -0.996741
v -0.482706 -0.243086 -0.722420
v -0.783135 0.243086 -1.172044
v -0.332493 -0.243086 -0.802710
v -0.539432 0.243086 -1.302305
v -0.169504 -0.243086 -0.852152
v -0.275000 0.243086 -1.382520
vn 0.0657 -0.7420 -0.6671
vn 0.1946 -0.7420 -0.6415
vn 0.3160 -0.7420 -0.5912
vn 0.4253 -0.7420 -0.5182
vn 0.5182 -0.7420 -0.4253
vn 0.5912 -0.7420 -0.3160
vn 0.6415 -0.7420 -0.1946
vn 0.6671 -0.7420 -0.0657
vn 0.6671 -0.7420 0.0657
vn 0.6415 -0.7420 0.1946
vn 0.5912 -0.7420 0.3160
vn 0.5182 -0.7420 0.4253
vn 0.4253 -0.7420 0.5182
vn 0.3160 -0.7420 0.5912
vn 0.1946 -0.7420 0.6415
vn 0.0657 -0.7420 0.6671
vn -0.0657 -0.7420 0.6671
vn -0.1946 -0.7420 0.6415
vn -0.3160 -0.7420 0.5912
vn -0.4253 -0.7420 0.5182
vn -0.5182 -0.7420 0.4253
vn -0.5912 -0.7420 0.3160
vn -0.6415 -0.7420 0.1946
vn -0.6671 -0.7420 0.0657
vn -0.6671 -0.7420 -0.0657
vn -0.6415 -0.7420 -0.1946
vn -0.5912 -0.7420 -0.3160
vn -0.5182 -0.7420 -0.4253
vn -0.4253 -0.7420 -0.5182
vn -0.3160 -0.7420 -0.5912
vn -0.1946 -0.7420 -0.6415
vn -0.0657 -0.7420 -0.6671
vt 0.704350 0.667702
vt 0.886272 0.818677
vt 0.667771 0.704917
vt 0.816664 0.888379
vt 0.624666 0.734248
vt 0.734805 0.943135
vt 0.576700 0.754571
vt 0.643851 0.980827
vt 0.525725 0.765109
vt 0.547317 1.000000
vt 0.473716 0.765465
vt 0.448936 0.999919
vt 0.422677 0.755620
vt 0.352512 0.980598
vt 0.374581 0.735960
vt 0.261767 0.942804
vt 0.331287 0.707243
vt 0.180195 0.888017
vt 0.294468 0.670573
vt 0.110909 0.818386
vt 0.265557 0.627359
vt 0.056536 0.736604
vt 0.245581 0.579208
vt 0.019099 0.645802
vt 0.235212 0.528003
vt 0.000010 0.549419
vt 0.234991 0.475725
vt 0.000000 0.451145
vt 0.244932 0.424366
vt 0.019052 0.354738
vt 0.264298 0.375899
vt 0.056456 0.263830
vt 0.292718 0.332229
vt 0.110844 0.181929
vt 0.329094 0.295021
vt 0.180158 0.112210
vt 0.372021 0.265699
vt 0.261748 0.057373
vt 0.419838 0.245387
vt 0.352475 0.019542
vt 0.470701 0.234865
vt 0.448845 0.000165
vt 0.522634 0.234542
vt 0.547159 0.000000
vt 0.573728 0.244378
vt 0.643658 0.019062
vt 0.621957 0.264045
vt 0.734612 0.056634
vt 0.665439 0.292779
vt 0.816503 0.111277
vt 0.702494 0.329477
vt 0.886165 0.180891
vt 0.731692 0.372728
vt 0.940907 0.262792
vt 0.751903 0.420870
vt 0.978614 0.353824
vt 0.762347 0.472051
vt 0.997836 0.450477
vt 0.762620 0.524304
vt 0.997836 0.549027
vt 0.752708 0.575621
vt 0.978624 0.645680
vt 0.732992 0.624032
vt 0.940955 0.736723
s 0
usemtl wave
f 2/2/1 3/3/1 1/1/1
f 4/4/2 5/5/2 3/3/2
f 6/6/3 7/7/3 5/5/3
f 7/7/4 10/10/4 9/9/4
f 10/10/5 11/11/5 9/9/5
f 12/12/6 13/13/6 11/11/6
f 14/14/7 15/15/7 13/13/7
f 16/16/8 17/17/8 15/15/8
f 18/18/9 19/19/9 17/17/9
f 20/20/10 21/21/10 19/19/10
f 22/22/11 23/23/11 21/21/11
f 23/23/12 26/26/12 25/25/12
f 26/26/13 27/27/13 25/25/13
f 28/28/14 29/29/14 27/27/14
f 30/30/15 31/31/15 29/29/15
f 32/32/16 33/33/16 31/31/16
f 34/34/17 35/35/17 33/33/17
f 36/36/18 37/37/18 35/35/18
f 38/38/19 39/39/19 37/37/19
f 39/39/20 42/42/20 41/41/20
f 42/42/21 43/43/21 41/41/21
f 44/44/22 45/45/22 43/43/22
f 46/46/23 47/47/23 45/45/23
f 48/48/24 49/49/24 47/47/24
f 50/50/25 51/51/25 49/49/25
f 52/52/26 53/53/26 51/51/26
f 54/54/27 55/55/27 53/53/27
f 55/55/28 58/58/28 57/57/28
f 58/58/29 59/59/29 57/57/29
f 60/60/30 61/61/30 59/59/30
f 62/62/31 63/63/31 61/61/31
f 64/64/32 1/1/32 63/63/32
f 2/2/1 4/4/1 3/3/1
f 4/4/2 6/6/2 5/5/2
f 6/6/3 8/8/3 7/7/3
f 7/7/4 8/8/4 10/10/4
f 10/10/5 12/12/5 11/11/5
f 12/12/6 14/14/6 13/13/6
f 14/14/7 16/16/7 15/15/7
f 16/16/8 18/18/8 17/17/8
f 18/18/9 20/20/9 19/19/9
f 20/20/10 22/22/10 21/21/10
f 22/22/11 24/24/11 23/23/11
f 23/23/12 24/24/12 26/26/12
f 26/26/13 28/28/13 27/27/13
f 28/28/14 30/30/14 29/29/14
f 30/30/15 32/32/15 31/31/15
f 32/32/16 34/34/16 33/33/16
f 34/34/17 36/36/17 35/35/17
f 36/36/18 38/38/18 37/37/18
f 38/38/19 40/40/19 39/39/19
f 39/39/20 40/40/20 42/42/20
f 42/42/21 44/44/21 43/43/21
f 44/44/22 46/46/22 45/45/22
f 46/46/23 48/48/23 47/47/23
f 48/48/24 50/50/24 49/49/24
f 50/50/25 52/52/25 51/51/25
f 52/52/26 54/54/26 53/53/26
f 54/54/27 56/56/27 55/55/27
f 55/55/28 56/56/28 58/58/28
f 58/58/29 60/60/29 59/59/29
f 60/60/30 62/62/30 61/61/30
f 62/62/31 64/64/31 63/63/31
f 64/64/32 2/2/32 1/1/32
