# Blender 3.3.1
# www.blender.org
mtllib pillar.mtl
o 立方体
v 2.332487 -9.997417 -2.332487
v 2.662483 7.400952 -2.662483
v 2.332487 -9.997417 2.332487
v 2.662483 7.400952 2.662483
v -2.332487 -9.997417 -2.332487
v -2.662483 7.400952 -2.662483
v -2.332487 -9.997417 2.332487
v -2.662483 7.400952 2.662483
v 1.250494 -6.997416 -1.250494
v 1.250494 -6.997416 1.250494
v -1.250494 -6.997416 1.250494
v -1.250494 -6.997416 -1.250494
v 1.085648 4.052583 -1.085648
v 1.085648 4.052583 1.085648
v -1.085648 4.052583 1.085648
v -1.085648 4.052583 -1.085648
v 1.948754 5.144135 -1.948754
v 1.948754 5.144134 1.948754
v -1.948754 5.144134 1.948754
v -1.948754 5.144134 -1.948754
v 1.236007 6.186635 -1.236007
v 1.236007 6.186634 1.236007
v -1.236007 6.186634 1.236007
v -1.236007 6.186634 -1.236007
v 1.009693 -8.497417 1.009693
v -1.009693 -8.497417 1.009693
v -1.009693 -8.497417 -1.009693
v 1.009693 -8.497417 -1.009693
vn 0.6482 -0.7615 -0.0000
vn -0.0000 -0.7615 0.6482
vn -0.6482 -0.7615 -0.0000
vn -0.0000 -0.7615 -0.6482
vn -0.0000 -1.0000 -0.0000
vn -0.0000 1.0000 -0.0000
vn -0.0000 -0.1585 -0.9874
vn -0.9874 -0.1585 -0.0000
vn -0.0000 -0.1585 0.9874
vn 0.9874 -0.1585 -0.0000
vn -0.0000 0.0149 -0.9999
vn -0.9999 0.0149 -0.0000
vn -0.0000 0.0149 0.9999
vn 0.9999 0.0149 -0.0000
vn -0.0000 -0.6202 -0.7844
vn -0.7844 -0.6202 -0.0000
vn -0.0000 -0.6202 0.7844
vn 0.7844 -0.6202 -0.0000
vn -0.0000 0.5644 -0.8255
vn -0.8255 0.5644 -0.0000
vn -0.0000 0.5644 0.8255
vn 0.8255 0.5644 -0.0000
vn 0.7500 0.6614 -0.0000
vn -0.0000 0.6614 0.7500
vn -0.7500 0.6614 -0.0000
vn -0.0000 0.6614 -0.7500
vt 0.402569 0.352674
vt 0.755243 0.705347
vt 0.000000 0.805138
vt 0.402569 0.402569
vt 0.402569 0.000000
vt 0.755243 0.352674
vt 0.000000 0.402569
vt 0.402569 0.000000
vt 0.755243 0.352674
vt 0.402569 0.705347
vt 0.402569 0.805138
vt 0.000000 0.402569
vt 0.755243 0.000000
vt 0.402569 0.352674
vt 0.000000 0.000000
vt 0.402569 0.402569
vt 0.755243 0.189075
vt 0.125926 0.994214
vt 0.755243 0.000000
vt 0.755243 0.378151
vt 0.000000 0.805138
vt 0.944318 0.000000
vt 0.755243 0.567226
vt 0.125926 0.805138
vt 0.944318 0.189075
vt 0.000000 0.994214
vt 0.467820 0.934749
vt 0.251851 0.981751
vt 0.881168 0.201538
vt 0.881168 0.390613
vt 0.881168 0.365689
vt 0.467820 0.770598
vt 0.125926 0.817601
vt 0.881168 0.554764
vt 0.631971 0.770598
vt 0.251851 0.817601
vt 0.125926 0.981751
vt 0.631971 0.934749
vt 0.402569 1.000000
vt 0.991875 1.000000
vt 0.402569 0.705347
vt 0.991875 0.705347
vt 0.697222 0.705347
vt 0.697222 1.000000
vt 0.107842 0.697296
vt 0.937991 0.946116
vt 0.107842 0.510411
vt 0.937991 0.759231
vt 0.294727 0.510411
vt 0.751106 0.759231
vt 0.294727 0.697296
vt 0.751106 0.946116
vt 0.773447 0.018205
vt 0.655239 0.452677
vt 0.926114 0.018205
vt 0.502573 0.452677
vt 0.926114 0.170871
vt 0.502573 0.605343
vt 0.773447 0.170871
vt 0.655239 0.605343
s 0
usemtl pillar
f 2/3/1 22/47/1 21/45/1
f 4/7/2 23/49/2 22/47/2
f 8/16/3 24/51/3 23/49/3
f 24/51/4 2/3/4 21/45/4
f 7/13/5 1/1/5 3/5/5
f 4/8/6 6/12/6 8/15/6
f 12/25/7 28/59/7 27/57/7
f 11/22/8 27/57/8 26/55/8
f 10/19/9 26/55/9 25/53/9
f 9/17/10 25/53/10 28/59/10
f 16/36/11 9/18/11 12/24/11
f 15/33/12 12/26/12 11/21/12
f 14/30/13 11/23/13 10/20/13
f 13/29/14 10/20/14 9/17/14
f 16/38/15 17/39/15 13/27/15
f 19/43/16 16/38/16 15/35/16
f 18/41/17 15/35/17 14/32/17
f 17/39/18 14/32/18 13/27/18
f 24/52/19 17/40/19 20/44/19
f 19/43/20 24/52/20 20/44/20
f 18/42/21 23/50/21 19/43/21
f 17/40/22 22/48/22 18/42/22
f 28/60/23 3/6/23 1/2/23
f 25/54/24 7/14/24 3/6/24
f 26/56/25 5/10/25 7/14/25
f 27/58/26 1/2/26 5/10/26
f 2/3/1 4/7/1 22/47/1
f 4/7/2 8/16/2 23/49/2
f 8/16/3 6/11/3 24/51/3
f 24/51/4 6/11/4 2/3/4
f 7/13/5 5/9/5 1/1/5
f 4/8/6 2/4/6 6/12/6
f 12/25/7 9/17/7 28/59/7
f 11/22/8 12/25/8 27/57/8
f 10/19/9 11/22/9 26/55/9
f 9/17/10 10/19/10 25/53/10
f 16/36/11 13/28/11 9/18/11
f 15/33/12 16/37/12 12/26/12
f 14/30/13 15/34/13 11/23/13
f 13/29/14 14/31/14 10/20/14
f 16/38/15 20/44/15 17/39/15
f 19/43/16 20/44/16 16/38/16
f 18/41/17 19/43/17 15/35/17
f 17/39/18 18/41/18 14/32/18
f 24/52/19 21/46/19 17/40/19
f 19/43/20 23/50/20 24/52/20
f 18/42/21 22/48/21 23/50/21
f 17/40/22 21/46/22 22/48/22
f 28/60/23 25/54/23 3/6/23
f 25/54/24 26/56/24 7/14/24
f 26/56/25 27/58/25 5/10/25
f 27/58/26 28/60/26 1/2/26
