# Blender 3.3.1
# www.blender.org
mtllib player.mtl
o Cube
v -1.500000 4.000000 1.500000
v -1.500000 1.000000 1.500000
v -1.500000 4.000000 -1.500000
v -1.500000 1.000000 -1.500000
v 1.500000 4.000000 1.500000
v 1.500000 1.000000 1.500000
v 1.500000 4.000000 -1.500000
v 1.500000 1.000000 -1.500000
v 1.718798 0.781202 0.889950
v 1.828704 0.671296 -0.000000
v 1.718798 0.781202 -0.889950
v -0.889950 0.781201 1.718798
v 0.000000 0.671296 1.828704
v 0.889950 0.781202 1.718798
v -1.718799 3.389950 1.718798
v -1.828704 2.500000 1.828704
v -1.718798 1.610050 1.718798
v 1.718798 1.610050 -1.718798
v 1.828704 2.500000 -1.828704
v 1.718798 3.389950 -1.718798
v -1.718798 3.389950 -1.718799
v -1.828704 2.500000 -1.828704
v -1.718798 1.610050 -1.718798
v 1.718798 3.389950 1.718798
v 1.828704 2.500000 1.828704
v 1.718798 1.610050 1.718798
v -0.889950 4.218798 -1.718799
v 0.000000 4.328704 -1.828704
v 0.889950 4.218798 -1.718799
v -1.718798 4.218799 0.889950
v -1.828704 4.328704 0.000000
v -1.718798 4.218798 -0.889950
v 0.889950 0.781202 -1.718799
v 0.000000 0.671296 -1.828704
v -0.889950 0.781202 -1.718798
v 1.718798 4.218799 -0.889950
v 1.828704 4.328704 0.000000
v 1.718798 4.218798 0.889950
v 0.889950 4.218799 1.718798
v 0.000000 4.328704 1.828704
v -0.889950 4.218798 1.718798
v -1.718798 0.781201 -0.889950
v -1.828704 0.671296 -0.000000
v -1.718799 0.781202 0.889950
v -0.948471 4.686970 0.948471
v 0.000000 4.845486 0.999421
v 0.948471 4.686970 0.948471
v -0.999421 4.845486 0.000000
v 0.000000 5.018519 0.000000
v 0.999421 4.845486 0.000000
v -0.948471 4.686970 -0.948471
v 0.000000 4.845486 -0.999421
v 0.948471 4.686970 -0.948471
v -0.948471 1.551529 -2.186970
v -0.999421 2.500000 -2.345486
v -0.948471 3.448471 -2.186970
v 0.000000 1.500579 -2.345486
v 0.000000 2.500000 -2.518519
v 0.000000 3.499421 -2.345486
v 0.948471 1.551529 -2.186970
v 0.999421 2.500000 -2.345486
v 0.948471 3.448471 -2.186970
v 2.186970 1.551529 -0.948471
v 2.345486 2.500000 -0.999421
v 2.186970 3.448471 -0.948471
v 2.345486 1.500579 -0.000000
v 2.518519 2.500000 0.000000
v 2.345486 3.499421 0.000000
v 2.186970 1.551529 0.948471
v 2.345486 2.500000 0.999421
v 2.186970 3.448471 0.948471
v 0.948471 0.313030 0.948471
v 0.000000 0.154514 0.999421
v -0.948471 0.313030 0.948471
v 0.999421 0.154514 -0.000000
v 0.000000 -0.018519 -0.000000
v -0.999421 0.154514 -0.000000
v 0.948471 0.313030 -0.948471
v 0.000000 0.154514 -0.999421
v -0.948471 0.313030 -0.948471
v -2.186970 1.551529 0.948471
v -2.345486 2.500000 0.999421
v -2.186970 3.448471 0.948471
v -2.345486 1.500579 -0.000000
v -2.518519 2.500000 0.000000
v -2.345486 3.499421 0.000000
v -2.186970 1.551529 -0.948471
v -2.345486 2.500000 -0.999421
v -2.186970 3.448471 -0.948471
v 0.948471 1.551529 2.186970
v 0.999421 2.500000 2.345486
v 0.948471 3.448471 2.186970
v 0.000000 1.500579 2.345486
v 0.000000 2.500000 2.518519
v 0.000000 3.499421 2.345486
v -0.948471 1.551529 2.186970
v -0.999421 2.500000 2.345486
v -0.948471 3.448471 2.186970
vn -0.1681 0.9708 0.1713
vn 0.1713 0.9708 0.1681
vn -0.1681 0.9708 -0.1713
vn 0.1713 0.9708 -0.1681
vn -0.4896 0.7501 0.4446
vn -0.1678 0.8367 0.5213
vn 0.1677 0.8367 0.5214
vn 0.4446 0.7501 0.4896
vn 0.5213 0.8367 0.1678
vn 0.5213 0.8367 -0.1678
vn 0.4446 0.7501 -0.4896
vn 0.1677 0.8367 -0.5214
vn -0.1678 0.8367 -0.5213
vn -0.4896 0.7501 -0.4446
vn -0.5214 0.8367 -0.1677
vn -0.5214 0.8367 0.1677
vn -0.1713 -0.1681 -0.9708
vn -0.1681 0.1713 -0.9708
vn 0.1713 -0.1681 -0.9708
vn 0.1681 0.1713 -0.9708
vn -0.4446 -0.4896 -0.7501
vn -0.5213 -0.1678 -0.8367
vn -0.5214 0.1677 -0.8367
vn -0.4896 0.4446 -0.7501
vn -0.1678 0.5213 -0.8367
vn 0.1678 0.5213 -0.8367
vn 0.4896 0.4446 -0.7501
vn 0.5214 0.1677 -0.8367
vn 0.5213 -0.1678 -0.8367
vn 0.4446 -0.4896 -0.7501
vn 0.1677 -0.5214 -0.8367
vn -0.1677 -0.5214 -0.8367
vn 0.9708 -0.1681 -0.1713
vn 0.9708 0.1713 -0.1681
vn 0.9708 -0.1681 0.1713
vn 0.9708 0.1713 0.1681
vn 0.7501 -0.4896 -0.4446
vn 0.8367 -0.1678 -0.5213
vn 0.8367 0.1677 -0.5214
vn 0.7501 0.4446 -0.4896
vn 0.8367 0.5213 -0.1678
vn 0.8367 0.5213 0.1678
vn 0.7501 0.4446 0.4896
vn 0.8367 0.1677 0.5214
vn 0.8367 -0.1678 0.5213
vn 0.7501 -0.4896 0.4446
vn 0.8367 -0.5214 0.1677
vn 0.8367 -0.5214 -0.1677
vn 0.1681 -0.9708 0.1713
vn -0.1713 -0.9708 0.1681
vn 0.1681 -0.9708 -0.1713
vn -0.1713 -0.9708 -0.1681
vn 0.4896 -0.7501 0.4446
vn 0.1678 -0.8367 0.5213
vn -0.1677 -0.8367 0.5214
vn -0.4446 -0.7501 0.4896
vn -0.5213 -0.8367 0.1678
vn -0.5213 -0.8367 -0.1678
vn -0.4446 -0.7501 -0.4896
vn -0.1677 -0.8367 -0.5214
vn 0.1678 -0.8367 -0.5213
vn 0.4896 -0.7501 -0.4446
vn 0.5214 -0.8367 -0.1677
vn 0.5214 -0.8367 0.1677
vn -0.9708 -0.1681 0.1713
vn -0.9708 0.1713 0.1681
vn -0.9708 -0.1681 -0.1713
vn -0.9708 0.1713 -0.1681
vn -0.7501 -0.4896 0.4446
vn -0.8367 -0.1678 0.5213
vn -0.8367 0.1677 0.5214
vn -0.7501 0.4446 0.4896
vn -0.8367 0.5213 0.1678
vn -0.8367 0.5213 -0.1678
vn -0.7501 0.4446 -0.4896
vn -0.8367 0.1677 -0.5214
vn -0.8367 -0.1678 -0.5213
vn -0.7501 -0.4896 -0.4446
vn -0.8367 -0.5214 -0.1677
vn -0.8367 -0.5214 0.1677
vn 0.1713 -0.1681 0.9708
vn 0.1681 0.1713 0.9708
vn -0.1713 -0.1681 0.9708
vn -0.1681 0.1713 0.9708
vn 0.4446 -0.4896 0.7501
vn 0.5213 -0.1678 0.8367
vn 0.5214 0.1677 0.8367
vn 0.4896 0.4446 0.7501
vn 0.1678 0.5213 0.8367
vn -0.1678 0.5213 0.8367
vn -0.4896 0.4446 0.7501
vn -0.5214 0.1677 0.8367
vn -0.5213 -0.1678 0.8367
vn -0.4446 -0.4896 0.7501
vn -0.1677 -0.5214 0.8367
vn 0.1677 -0.5214 0.8367
vn -0.1713 0.9708 0.1681
vn 0.1681 0.9708 0.1713
vn -0.1713 0.9708 -0.1681
vn 0.1681 0.9708 -0.1713
vn -0.4446 0.7501 0.4896
vn -0.1677 0.8367 0.5214
vn 0.1678 0.8367 0.5213
vn 0.4896 0.7501 0.4446
vn 0.5214 0.8367 0.1677
vn 0.5214 0.8367 -0.1677
vn 0.4896 0.7501 -0.4446
vn 0.1678 0.8367 -0.5213
vn -0.1677 0.8367 -0.5214
vn -0.4446 0.7501 -0.4896
vn -0.5213 0.8367 -0.1678
vn -0.5213 0.8367 0.1678
vn -0.1681 -0.1713 -0.9708
vn -0.1713 0.1681 -0.9708
vn 0.1681 -0.1713 -0.9708
vn 0.1713 0.1681 -0.9708
vn -0.4896 -0.4446 -0.7501
vn -0.5214 -0.1677 -0.8367
vn -0.5213 0.1678 -0.8367
vn -0.4446 0.4896 -0.7501
vn -0.1677 0.5214 -0.8367
vn 0.1677 0.5214 -0.8367
vn 0.4446 0.4896 -0.7501
vn 0.5213 0.1678 -0.8367
vn 0.5214 -0.1677 -0.8367
vn 0.4896 -0.4446 -0.7501
vn 0.1678 -0.5213 -0.8367
vn -0.1678 -0.5213 -0.8367
vn 0.9708 -0.1713 -0.1681
vn 0.9708 0.1681 -0.1713
vn 0.9708 -0.1713 0.1681
vn 0.9708 0.1681 0.1713
vn 0.7501 -0.4446 -0.4896
vn 0.8367 -0.1677 -0.5214
vn 0.8367 0.1678 -0.5213
vn 0.7501 0.4896 -0.4446
vn 0.8367 0.5214 -0.1677
vn 0.8367 0.5214 0.1677
vn 0.7501 0.4896 0.4446
vn 0.8367 0.1678 0.5213
vn 0.8367 -0.1677 0.5214
vn 0.7501 -0.4446 0.4896
vn 0.8367 -0.5213 0.1678
vn 0.8367 -0.5213 -0.1678
vn 0.1713 -0.9708 0.1681
vn -0.1681 -0.9708 0.1713
vn 0.1713 -0.9708 -0.1681
vn -0.1681 -0.9708 -0.1713
vn 0.4446 -0.7501 0.4896
vn 0.1677 -0.8367 0.5214
vn -0.1678 -0.8367 0.5213
vn -0.4896 -0.7501 0.4446
vn -0.5214 -0.8367 0.1677
vn -0.5214 -0.8367 -0.1677
vn -0.4896 -0.7501 -0.4446
vn -0.1678 -0.8367 -0.5213
vn 0.1677 -0.8367 -0.5214
vn 0.4446 -0.7501 -0.4896
vn 0.5213 -0.8367 -0.1678
vn 0.5213 -0.8367 0.1678
vn -0.9708 -0.1713 0.1681
vn -0.9708 0.1681 0.1713
vn -0.9708 -0.1713 -0.1681
vn -0.9708 0.1681 -0.1713
vn -0.7501 -0.4446 0.4896
vn -0.8367 -0.1677 0.5214
vn -0.8367 0.1678 0.5213
vn -0.7501 0.4896 0.4446
vn -0.8367 0.5214 0.1677
vn -0.8367 0.5214 -0.1677
vn -0.7501 0.4896 -0.4446
vn -0.8367 0.1678 -0.5213
vn -0.8367 -0.1677 -0.5214
vn -0.7501 -0.4446 -0.4896
vn -0.8367 -0.5213 -0.1678
vn -0.8367 -0.5213 0.1678
vn 0.1681 -0.1713 0.9708
vn 0.1713 0.1681 0.9708
vn -0.1681 -0.1713 0.9708
vn -0.1713 0.1681 0.9708
vn 0.4896 -0.4446 0.7501
vn 0.5214 -0.1677 0.8367
vn 0.5213 0.1678 0.8367
vn 0.4446 0.4896 0.7501
vn 0.1677 0.5214 0.8367
vn -0.1677 0.5214 0.8367
vn -0.4446 0.4896 0.7501
vn -0.5213 0.1678 0.8367
vn -0.5214 -0.1677 0.8367
vn -0.4896 -0.4446 0.7501
vn -0.1678 -0.5213 0.8367
vn 0.1678 -0.5213 0.8367
vt 0.625000 0.500000
vt 0.375000 0.500000
vt 0.625000 0.750000
vt 0.375000 0.750000
vt 0.875000 0.500000
vt 0.625000 0.250000
vt 0.125000 0.500000
vt 0.375000 0.250000
vt 0.875000 0.750000
vt 0.625000 1.000000
vt 0.625000 0.000000
vt 0.375000 1.000000
vt 0.375000 0.000000
vt 0.125000 0.750000
vt 0.375000 0.187500
vt 0.125000 0.562500
vt 0.375000 0.125000
vt 0.125000 0.625000
vt 0.375000 0.062500
vt 0.125000 0.687500
vt 0.312500 0.500000
vt 0.375000 0.437500
vt 0.375000 0.375000
vt 0.250000 0.500000
vt 0.187500 0.500000
vt 0.375000 0.312500
vt 0.562500 0.500000
vt 0.500000 0.500000
vt 0.437500 0.500000
vt 0.437500 1.000000
vt 0.437500 0.000000
vt 0.500000 1.000000
vt 0.500000 0.000000
vt 0.562500 1.000000
vt 0.562500 0.000000
vt 0.562500 0.750000
vt 0.500000 0.750000
vt 0.437500 0.750000
vt 0.562500 0.250000
vt 0.500000 0.250000
vt 0.437500 0.250000
vt 0.687500 0.750000
vt 0.625000 0.812500
vt 0.750000 0.750000
vt 0.625000 0.875000
vt 0.812500 0.750000
vt 0.625000 0.937500
vt 0.625000 0.562500
vt 0.625000 0.625000
vt 0.625000 0.687500
vt 0.375000 0.937500
vt 0.187500 0.750000
vt 0.375000 0.875000
vt 0.250000 0.750000
vt 0.375000 0.812500
vt 0.312500 0.750000
vt 0.875000 0.687500
vt 0.625000 0.062500
vt 0.875000 0.625000
vt 0.625000 0.125000
vt 0.875000 0.562500
vt 0.625000 0.187500
vt 0.812500 0.500000
vt 0.625000 0.312500
vt 0.750000 0.500000
vt 0.625000 0.375000
vt 0.687500 0.500000
vt 0.625000 0.437500
vt 0.375000 0.687500
vt 0.375000 0.625000
vt 0.375000 0.562500
vt 0.687500 0.562500
vt 0.750000 0.562500
vt 0.812500 0.562500
vt 0.687500 0.625000
vt 0.750000 0.625000
vt 0.812500 0.625000
vt 0.687500 0.687500
vt 0.750000 0.687500
vt 0.812500 0.687500
vt 0.437500 0.812500
vt 0.500000 0.812500
vt 0.562500 0.812500
vt 0.437500 0.875000
vt 0.500000 0.875000
vt 0.562500 0.875000
vt 0.437500 0.937500
vt 0.500000 0.937500
vt 0.562500 0.937500
vt 0.437500 0.062500
vt 0.500000 0.062500
vt 0.562500 0.062500
vt 0.437500 0.125000
vt 0.500000 0.125000
vt 0.562500 0.125000
vt 0.437500 0.187500
vt 0.500000 0.187500
vt 0.562500 0.187500
vt 0.187500 0.562500
vt 0.250000 0.562500
vt 0.312500 0.562500
vt 0.187500 0.625000
vt 0.250000 0.625000
vt 0.312500 0.625000
vt 0.187500 0.687500
vt 0.250000 0.687500
vt 0.312500 0.687500
vt 0.437500 0.562500
vt 0.500000 0.562500
vt 0.562500 0.562500
vt 0.437500 0.625000
vt 0.500000 0.625000
vt 0.562500 0.625000
vt 0.437500 0.687500
vt 0.500000 0.687500
vt 0.562500 0.687500
vt 0.437500 0.312500
vt 0.500000 0.312500
vt 0.562500 0.312500
vt 0.437500 0.375000
vt 0.500000 0.375000
vt 0.562500 0.375000
vt 0.437500 0.437500
vt 0.500000 0.437500
vt 0.562500 0.437500
s 0
usemtl Material.001
f 45/72/1 49/76/1 48/75/1
f 47/74/2 49/76/2 46/73/2
f 49/76/3 51/78/3 48/75/3
f 49/76/4 53/80/4 52/79/4
f 1/1/5 45/72/5 30/48/5
f 41/67/6 46/73/6 45/72/6
f 39/63/7 46/73/7 40/65/7
f 5/5/8 47/74/8 39/63/8
f 38/61/9 50/77/9 47/74/9
f 50/77/10 36/57/10 53/80/10
f 53/80/11 7/9/11 29/46/11
f 52/79/12 29/46/12 28/44/12
f 52/79/13 27/42/13 51/78/13
f 51/78/14 3/3/14 32/50/14
f 48/75/15 32/50/15 31/49/15
f 30/48/16 48/75/16 31/49/16
f 54/81/17 58/85/17 57/84/17
f 56/83/18 58/85/18 55/82/18
f 58/85/19 60/87/19 57/84/19
f 58/85/20 62/89/20 61/88/20
f 4/4/21 54/81/21 35/55/21
f 23/38/22 55/82/22 54/81/22
f 21/36/23 55/82/23 22/37/23
f 3/3/24 56/83/24 21/36/24
f 27/43/25 59/86/25 56/83/25
f 59/86/26 29/47/26 62/89/26
f 62/89/27 7/10/27 20/34/27
f 61/88/28 20/34/28 19/32/28
f 61/88/29 18/30/29 60/87/29
f 60/87/30 8/12/30 33/51/30
f 57/84/31 33/51/31 34/53/31
f 35/55/32 57/84/32 34/53/32
f 63/90/33 67/94/33 66/93/33
f 65/92/34 67/94/34 64/91/34
f 67/94/35 69/96/35 66/93/35
f 67/94/36 71/98/36 70/97/36
f 8/13/37 63/90/37 11/19/37
f 18/31/38 64/91/38 63/90/38
f 20/35/39 64/91/39 19/33/39
f 7/11/40 65/92/40 20/35/40
f 36/58/41 68/95/41 65/92/41
f 68/95/42 38/62/42 71/98/42
f 71/98/43 5/6/43 24/39/43
f 70/97/44 24/39/44 25/40/44
f 70/97/45 26/41/45 69/96/45
f 69/96/46 6/8/46 9/15/46
f 66/93/47 9/15/47 10/17/47
f 11/19/48 66/93/48 10/17/48
f 72/99/49 76/103/49 75/102/49
f 74/101/50 76/103/50 73/100/50
f 76/103/51 78/105/51 75/102/51
f 76/103/52 80/107/52 79/106/52
f 6/7/53 72/99/53 9/16/53
f 14/25/54 73/100/54 72/99/54
f 12/21/55 73/100/55 13/24/55
f 2/2/56 74/101/56 12/21/56
f 44/71/57 77/104/57 74/101/57
f 77/104/58 42/69/58 80/107/58
f 80/107/59 4/4/59 35/56/59
f 79/106/60 35/56/60 34/54/60
f 79/106/61 33/52/61 78/105/61
f 78/105/62 8/14/62 11/20/62
f 75/102/63 11/20/63 10/18/63
f 9/16/64 75/102/64 10/18/64
f 81/108/65 85/112/65 84/111/65
f 83/110/66 85/112/66 82/109/66
f 85/112/67 87/114/67 84/111/67
f 85/112/68 89/116/68 88/115/68
f 2/2/69 81/108/69 44/71/69
f 17/29/70 82/109/70 81/108/70
f 15/27/71 82/109/71 16/28/71
f 1/1/72 83/110/72 15/27/72
f 30/48/73 86/113/73 83/110/73
f 86/113/74 32/50/74 89/116/74
f 89/116/75 3/3/75 21/36/75
f 88/115/76 21/36/76 22/37/76
f 88/115/77 23/38/77 87/114/77
f 87/114/78 4/4/78 42/69/78
f 84/111/79 42/69/79 43/70/79
f 44/71/80 84/111/80 43/70/80
f 90/117/81 94/121/81 93/120/81
f 92/119/82 94/121/82 91/118/82
f 94/121/83 96/123/83 93/120/83
f 94/121/84 98/125/84 97/124/84
f 6/8/85 90/117/85 14/26/85
f 26/41/86 91/118/86 90/117/86
f 24/39/87 91/118/87 25/40/87
f 5/6/88 92/119/88 24/39/88
f 39/64/89 95/122/89 92/119/89
f 95/122/90 41/68/90 98/125/90
f 98/125/91 1/1/91 15/27/91
f 97/124/92 15/27/92 16/28/92
f 97/124/93 17/29/93 96/123/93
f 96/123/94 2/2/94 12/22/94
f 93/120/95 12/22/95 13/23/95
f 14/26/96 93/120/96 13/23/96
f 45/72/97 46/73/97 49/76/97
f 47/74/98 50/77/98 49/76/98
f 49/76/99 52/79/99 51/78/99
f 49/76/100 50/77/100 53/80/100
f 1/1/101 41/67/101 45/72/101
f 41/67/102 40/65/102 46/73/102
f 39/63/103 47/74/103 46/73/103
f 5/5/104 38/61/104 47/74/104
f 38/61/105 37/59/105 50/77/105
f 50/77/106 37/59/106 36/57/106
f 53/80/107 36/57/107 7/9/107
f 52/79/108 53/80/108 29/46/108
f 52/79/109 28/44/109 27/42/109
f 51/78/110 27/42/110 3/3/110
f 48/75/111 51/78/111 32/50/111
f 30/48/112 45/72/112 48/75/112
f 54/81/113 55/82/113 58/85/113
f 56/83/114 59/86/114 58/85/114
f 58/85/115 61/88/115 60/87/115
f 58/85/116 59/86/116 62/89/116
f 4/4/117 23/38/117 54/81/117
f 23/38/118 22/37/118 55/82/118
f 21/36/119 56/83/119 55/82/119
f 3/3/120 27/43/120 56/83/120
f 27/43/121 28/45/121 59/86/121
f 59/86/122 28/45/122 29/47/122
f 62/89/123 29/47/123 7/10/123
f 61/88/124 62/89/124 20/34/124
f 61/88/125 19/32/125 18/30/125
f 60/87/126 18/30/126 8/12/126
f 57/84/127 60/87/127 33/51/127
f 35/55/128 54/81/128 57/84/128
f 63/90/129 64/91/129 67/94/129
f 65/92/130 68/95/130 67/94/130
f 67/94/131 70/97/131 69/96/131
f 67/94/132 68/95/132 71/98/132
f 8/13/133 18/31/133 63/90/133
f 18/31/134 19/33/134 64/91/134
f 20/35/135 65/92/135 64/91/135
f 7/11/136 36/58/136 65/92/136
f 36/58/137 37/60/137 68/95/137
f 68/95/138 37/60/138 38/62/138
f 71/98/139 38/62/139 5/6/139
f 70/97/140 71/98/140 24/39/140
f 70/97/141 25/40/141 26/41/141
f 69/96/142 26/41/142 6/8/142
f 66/93/143 69/96/143 9/15/143
f 11/19/144 63/90/144 66/93/144
f 72/99/145 73/100/145 76/103/145
f 74/101/146 77/104/146 76/103/146
f 76/103/147 79/106/147 78/105/147
f 76/103/148 77/104/148 80/107/148
f 6/7/149 14/25/149 72/99/149
f 14/25/150 13/24/150 73/100/150
f 12/21/151 74/101/151 73/100/151
f 2/2/152 44/71/152 74/101/152
f 44/71/153 43/70/153 77/104/153
f 77/104/154 43/70/154 42/69/154
f 80/107/155 42/69/155 4/4/155
f 79/106/156 80/107/156 35/56/156
f 79/106/157 34/54/157 33/52/157
f 78/105/158 33/52/158 8/14/158
f 75/102/159 78/105/159 11/20/159
f 9/16/160 72/99/160 75/102/160
f 81/108/161 82/109/161 85/112/161
f 83/110/162 86/113/162 85/112/162
f 85/112/163 88/115/163 87/114/163
f 85/112/164 86/113/164 89/116/164
f 2/2/165 17/29/165 81/108/165
f 17/29/166 16/28/166 82/109/166
f 15/27/167 83/110/167 82/109/167
f 1/1/168 30/48/168 83/110/168
f 30/48/169 31/49/169 86/113/169
f 86/113/170 31/49/170 32/50/170
f 89/116/171 32/50/171 3/3/171
f 88/115/172 89/116/172 21/36/172
f 88/115/173 22/37/173 23/38/173
f 87/114/174 23/38/174 4/4/174
f 84/111/175 87/114/175 42/69/175
f 44/71/176 81/108/176 84/111/176
f 90/117/177 91/118/177 94/121/177
f 92/119/178 95/122/178 94/121/178
f 94/121/179 97/124/179 96/123/179
f 94/121/180 95/122/180 98/125/180
f 6/8/181 26/41/181 90/117/181
f 26/41/182 25/40/182 91/118/182
f 24/39/183 92/119/183 91/118/183
f 5/6/184 39/64/184 92/119/184
f 39/64/185 40/66/185 95/122/185
f 95/122/186 40/66/186 41/68/186
f 98/125/187 41/68/187 1/1/187
f 97/124/188 98/125/188 15/27/188
f 97/124/189 16/28/189 17/29/189
f 96/123/190 17/29/190 2/2/190
f 93/120/191 96/123/191 12/22/191
f 14/26/192 90/117/192 93/120/192
o å††éŒ
v 0.000000 0.488368 1.075652
v -0.392450 0.527021 1.075652
v -0.769818 0.641494 1.075652
v -1.117603 0.827389 1.075652
v -1.422439 1.077561 1.075651
v -1.672611 1.382397 1.075651
v -1.858506 1.730182 1.075651
v -1.972979 2.107550 1.075651
v -2.011632 2.500000 1.075651
v -1.972979 2.892450 1.075651
v -1.858506 3.269818 1.075651
v -1.672611 3.617603 1.075651
v -1.422439 3.922439 1.075651
v -1.117603 4.172611 1.075651
v -0.769818 4.358506 1.075651
v -0.392450 4.472979 1.075651
v 0.000000 4.511632 1.075651
v 0.392450 4.472979 1.075651
v 0.769818 4.358506 1.075651
v 1.117603 4.172611 1.075651
v 1.422439 3.922439 1.075651
v 1.672611 3.617603 1.075651
v 1.858506 3.269818 1.075651
v 1.972979 2.892450 1.075651
v 2.011632 2.500000 1.075651
v 1.972979 2.107550 1.075651
v 1.858506 1.730181 1.075651
v 1.672611 1.382397 1.075651
v 1.422439 1.077561 1.075651
v 1.117603 0.827389 1.075652
v 0.769818 0.641494 1.075652
v 0.392450 0.527021 1.075652
v 0.000000 2.499999 5.098916
vn -0.0878 -0.8910 0.4455
vn -0.2599 -0.8567 0.4455
vn -0.4220 -0.7896 0.4455
vn -0.5680 -0.6921 0.4455
vn -0.6921 -0.5680 0.4455
vn -0.7896 -0.4220 0.4455
vn -0.8567 -0.2599 0.4455
vn -0.8910 -0.0878 0.4455
vn -0.8910 0.0878 0.4455
vn -0.8567 0.2599 0.4455
vn -0.7896 0.4220 0.4455
vn -0.6921 0.5680 0.4455
vn -0.5680 0.6921 0.4455
vn -0.4220 0.7896 0.4455
vn -0.2599 0.8567 0.4455
vn -0.0878 0.8910 0.4455
vn 0.0878 0.8910 0.4455
vn 0.2599 0.8567 0.4455
vn 0.4220 0.7896 0.4455
vn 0.5680 0.6921 0.4455
vn 0.6921 0.5680 0.4455
vn 0.7896 0.4220 0.4455
vn 0.8567 0.2599 0.4455
vn 0.8910 0.0878 0.4455
vn 0.8910 -0.0878 0.4455
vn 0.8567 -0.2599 0.4455
vn 0.7896 -0.4220 0.4455
vn 0.6921 -0.5680 0.4455
vn 0.5680 -0.6921 0.4455
vn 0.4220 -0.7896 0.4455
vn -0.0000 -0.0000 -1.0000
vn 0.2599 -0.8567 0.4455
vn 0.0878 -0.8910 0.4455
vt 0.250000 0.490000
vt 0.750000 0.490000
vt 0.296822 0.485388
vt 0.796822 0.485388
vt 0.341844 0.471731
vt 0.841844 0.471731
vt 0.383337 0.449553
vt 0.883337 0.449553
vt 0.419706 0.419706
vt 0.919706 0.419706
vt 0.449553 0.383337
vt 0.949553 0.383337
vt 0.471731 0.341844
vt 0.971731 0.341844
vt 0.485388 0.296822
vt 0.985388 0.296822
vt 0.490000 0.250000
vt 0.990000 0.250000
vt 0.485388 0.203178
vt 0.985388 0.203178
vt 0.471731 0.158156
vt 0.971731 0.158156
vt 0.449553 0.116663
vt 0.949553 0.116663
vt 0.419706 0.080294
vt 0.919706 0.080294
vt 0.383337 0.050447
vt 0.883337 0.050447
vt 0.341844 0.028269
vt 0.841844 0.028269
vt 0.296822 0.014612
vt 0.796822 0.014612
vt 0.250000 0.010000
vt 0.750000 0.010000
vt 0.203178 0.014612
vt 0.703178 0.014612
vt 0.158156 0.028269
vt 0.658156 0.028269
vt 0.116663 0.050447
vt 0.616663 0.050447
vt 0.080294 0.080294
vt 0.580294 0.080294
vt 0.050447 0.116663
vt 0.550447 0.116663
vt 0.028269 0.158156
vt 0.528269 0.158156
vt 0.014612 0.203178
vt 0.514612 0.203178
vt 0.010000 0.250000
vt 0.510000 0.250000
vt 0.014612 0.296822
vt 0.514612 0.296822
vt 0.028269 0.341844
vt 0.528269 0.341844
vt 0.050447 0.383337
vt 0.550447 0.383337
vt 0.080294 0.419706
vt 0.580294 0.419706
vt 0.116663 0.449553
vt 0.616663 0.449553
vt 0.158156 0.471731
vt 0.658156 0.471731
vt 0.203178 0.485388
vt 0.703178 0.485388
vt 0.250000 0.250000
s 0
usemtl None
f 99/126/193 131/190/193 100/128/193
f 100/128/194 131/190/194 101/130/194
f 101/130/195 131/190/195 102/132/195
f 102/132/196 131/190/196 103/134/196
f 103/134/197 131/190/197 104/136/197
f 104/136/198 131/190/198 105/138/198
f 105/138/199 131/190/199 106/140/199
f 106/140/200 131/190/200 107/142/200
f 107/142/201 131/190/201 108/144/201
f 108/144/202 131/190/202 109/146/202
f 109/146/203 131/190/203 110/148/203
f 110/148/204 131/190/204 111/150/204
f 111/150/205 131/190/205 112/152/205
f 112/152/206 131/190/206 113/154/206
f 113/154/207 131/190/207 114/156/207
f 114/156/208 131/190/208 115/158/208
f 115/158/209 131/190/209 116/160/209
f 116/160/210 131/190/210 117/162/210
f 117/162/211 131/190/211 118/164/211
f 118/164/212 131/190/212 119/166/212
f 119/166/213 131/190/213 120/168/213
f 120/168/214 131/190/214 121/170/214
f 121/170/215 131/190/215 122/172/215
f 122/172/216 131/190/216 123/174/216
f 123/174/217 131/190/217 124/176/217
f 124/176/218 131/190/218 125/178/218
f 125/178/219 131/190/219 126/180/219
f 126/180/220 131/190/220 127/182/220
f 127/182/221 131/190/221 128/184/221
f 128/184/222 131/190/222 129/186/222
f 106/141/223 114/157/223 122/173/223
f 129/186/224 131/190/224 130/188/224
f 130/188/225 131/190/225 99/126/225
f 130/189/223 99/127/223 100/129/223
f 100/129/223 101/131/223 102/133/223
f 102/133/223 103/135/223 104/137/223
f 104/137/223 105/139/223 106/141/223
f 106/141/223 107/143/223 108/145/223
f 108/145/223 109/147/223 110/149/223
f 110/149/223 111/151/223 112/153/223
f 112/153/223 113/155/223 114/157/223
f 114/157/223 115/159/223 116/161/223
f 116/161/223 117/163/223 118/165/223
f 118/165/223 119/167/223 120/169/223
f 120/169/223 121/171/223 122/173/223
f 122/173/223 123/175/223 124/177/223
f 124/177/223 125/179/223 122/173/223
f 125/179/223 126/181/223 122/173/223
f 126/181/223 127/183/223 128/185/223
f 128/185/223 129/187/223 126/181/223
f 129/187/223 130/189/223 126/181/223
f 130/189/223 100/129/223 106/141/223
f 100/129/223 102/133/223 106/141/223
f 102/133/223 104/137/223 106/141/223
f 106/141/223 108/145/223 110/149/223
f 110/149/223 112/153/223 106/141/223
f 112/153/223 114/157/223 106/141/223
f 114/157/223 116/161/223 122/173/223
f 116/161/223 118/165/223 122/173/223
f 118/165/223 120/169/223 122/173/223
f 122/173/223 126/181/223 130/189/223
f 130/189/223 106/141/223 122/173/223
