{
    "asset" : {
        "generator" : "Khronos glTF Blender I/O v3.4.49",
        "version" : "2.0"
    },
    "scene" : 0,
    "scenes" : [
        {
            "name" : "Scene",
            "nodes" : [
                5
            ]
        }
    ],
    "nodes" : [
        {
            "name" : "Bone.003",
            "rotation" : [
                -3.5527119847346064e-15,
                0,
                -2.0194839173657902e-28,
                1
            ],
            "translation" : [
                0,
                1.9556469917297363,
                0
            ]
        },
        {
            "children" : [
                0
            ],
            "name" : "Bone.002",
            "rotation" : [
                -3.5527119847346064e-15,
                0,
                -2.0194839173657902e-28,
                1
            ],
            "translation" : [
                0,
                2.0444488525390625,
                0
            ]
        },
        {
            "children" : [
                1
            ],
            "name" : "Bone.001",
            "rotation" : [
                -3.5527119847346064e-15,
                1.7763568394002505e-14,
                -2.0194839173657902e-28,
                1
            ],
            "translation" : [
                0,
                1.970114827156067,
                0
            ]
        },
        {
            "children" : [
                2
            ],
            "name" : "Bone",
            "rotation" : [
                -2.980232594040899e-08,
                1.1920927533992653e-07,
                0,
                1
            ],
            "scale" : [
                1,
                0.9999999403953552,
                0.9999999403953552
            ]
        },
        {
            "mesh" : 0,
            "name" : "\u7acb\u65b9\u4f53",
            "skin" : 0
        },
        {
            "children" : [
                4,
                3
            ],
            "name" : "\u30a2\u30fc\u30de\u30c1\u30e5\u30a2"
        }
    ],
    "animations" : [
        {
            "channels" : [
                {
                    "sampler" : 0,
                    "target" : {
                        "node" : 3,
                        "path" : "translation"
                    }
                },
                {
                    "sampler" : 1,
                    "target" : {
                        "node" : 3,
                        "path" : "rotation"
                    }
                },
                {
                    "sampler" : 2,
                    "target" : {
                        "node" : 3,
                        "path" : "scale"
                    }
                },
                {
                    "sampler" : 3,
                    "target" : {
                        "node" : 2,
                        "path" : "translation"
                    }
                },
                {
                    "sampler" : 4,
                    "target" : {
                        "node" : 2,
                        "path" : "rotation"
                    }
                },
                {
                    "sampler" : 5,
                    "target" : {
                        "node" : 2,
                        "path" : "scale"
                    }
                },
                {
                    "sampler" : 6,
                    "target" : {
                        "node" : 1,
                        "path" : "translation"
                    }
                },
                {
                    "sampler" : 7,
                    "target" : {
                        "node" : 1,
                        "path" : "rotation"
                    }
                },
                {
                    "sampler" : 8,
                    "target" : {
                        "node" : 1,
                        "path" : "scale"
                    }
                },
                {
                    "sampler" : 9,
                    "target" : {
                        "node" : 0,
                        "path" : "translation"
                    }
                },
                {
                    "sampler" : 10,
                    "target" : {
                        "node" : 0,
                        "path" : "rotation"
                    }
                },
                {
                    "sampler" : 11,
                    "target" : {
                        "node" : 0,
                        "path" : "scale"
                    }
                }
            ],
            "name" : "\u30a2\u30fc\u30de\u30c1\u30e5\u30a2Action",
            "samplers" : [
                {
                    "input" : 7,
                    "interpolation" : "LINEAR",
                    "output" : 8
                },
                {
                    "input" : 7,
                    "interpolation" : "LINEAR",
                    "output" : 9
                },
                {
                    "input" : 7,
                    "interpolation" : "LINEAR",
                    "output" : 10
                },
                {
                    "input" : 7,
                    "interpolation" : "LINEAR",
                    "output" : 11
                },
                {
                    "input" : 7,
                    "interpolation" : "LINEAR",
                    "output" : 12
                },
                {
                    "input" : 7,
                    "interpolation" : "LINEAR",
                    "output" : 13
                },
                {
                    "input" : 7,
                    "interpolation" : "LINEAR",
                    "output" : 14
                },
                {
                    "input" : 7,
                    "interpolation" : "LINEAR",
                    "output" : 15
                },
                {
                    "input" : 7,
                    "interpolation" : "LINEAR",
                    "output" : 16
                },
                {
                    "input" : 7,
                    "interpolation" : "LINEAR",
                    "output" : 17
                },
                {
                    "input" : 7,
                    "interpolation" : "LINEAR",
                    "output" : 18
                },
                {
                    "input" : 7,
                    "interpolation" : "LINEAR",
                    "output" : 19
                }
            ]
        }
    ],
    "meshes" : [
        {
            "name" : "\u7acb\u65b9\u4f53",
            "primitives" : [
                {
                    "attributes" : {
                        "POSITION" : 0,
                        "TEXCOORD_0" : 1,
                        "NORMAL" : 2,
                        "JOINTS_0" : 3,
                        "WEIGHTS_0" : 4
                    },
                    "indices" : 5
                }
            ]
        }
    ],
    "skins" : [
        {
            "inverseBindMatrices" : 6,
            "joints" : [
                3,
                2,
                1,
                0
            ],
            "name" : "\u30a2\u30fc\u30de\u30c1\u30e5\u30a2"
        }
    ],
    "accessors" : [
        {
            "bufferView" : 0,
            "componentType" : 5126,
            "count" : 48,
            "max" : [
                1,
                8,
                1
            ],
            "min" : [
                -1,
                0,
                -1
            ],
            "type" : "VEC3"
        },
        {
            "bufferView" : 1,
            "componentType" : 5126,
            "count" : 48,
            "type" : "VEC2"
        },
        {
            "bufferView" : 2,
            "componentType" : 5126,
            "count" : 48,
            "type" : "VEC3"
        },
        {
            "bufferView" : 3,
            "componentType" : 5121,
            "count" : 48,
            "type" : "VEC4"
        },
        {
            "bufferView" : 4,
            "componentType" : 5126,
            "count" : 48,
            "type" : "VEC4"
        },
        {
            "bufferView" : 5,
            "componentType" : 5123,
            "count" : 108,
            "type" : "SCALAR"
        },
        {
            "bufferView" : 6,
            "componentType" : 5126,
            "count" : 4,
            "type" : "MAT4"
        },
        {
            "bufferView" : 7,
            "componentType" : 5126,
            "count" : 80,
            "max" : [
                3.3333333333333335
            ],
            "min" : [
                0.041666666666666664
            ],
            "type" : "SCALAR"
        },
        {
            "bufferView" : 8,
            "componentType" : 5126,
            "count" : 80,
            "type" : "VEC3"
        },
        {
            "bufferView" : 9,
            "componentType" : 5126,
            "count" : 80,
            "type" : "VEC4"
        },
        {
            "bufferView" : 10,
            "componentType" : 5126,
            "count" : 80,
            "type" : "VEC3"
        },
        {
            "bufferView" : 11,
            "componentType" : 5126,
            "count" : 80,
            "type" : "VEC3"
        },
        {
            "bufferView" : 12,
            "componentType" : 5126,
            "count" : 80,
            "type" : "VEC4"
        },
        {
            "bufferView" : 13,
            "componentType" : 5126,
            "count" : 80,
            "type" : "VEC3"
        },
        {
            "bufferView" : 14,
            "componentType" : 5126,
            "count" : 80,
            "type" : "VEC3"
        },
        {
            "bufferView" : 15,
            "componentType" : 5126,
            "count" : 80,
            "type" : "VEC4"
        },
        {
            "bufferView" : 16,
            "componentType" : 5126,
            "count" : 80,
            "type" : "VEC3"
        },
        {
            "bufferView" : 17,
            "componentType" : 5126,
            "count" : 80,
            "type" : "VEC3"
        },
        {
            "bufferView" : 18,
            "componentType" : 5126,
            "count" : 80,
            "type" : "VEC4"
        },
        {
            "bufferView" : 19,
            "componentType" : 5126,
            "count" : 80,
            "type" : "VEC3"
        }
    ],
    "bufferViews" : [
        {
            "buffer" : 0,
            "byteLength" : 576,
            "byteOffset" : 0,
            "target" : 34962
        },
        {
            "buffer" : 0,
            "byteLength" : 384,
            "byteOffset" : 576,
            "target" : 34962
        },
        {
            "buffer" : 0,
            "byteLength" : 576,
            "byteOffset" : 960,
            "target" : 34962
        },
        {
            "buffer" : 0,
            "byteLength" : 192,
            "byteOffset" : 1536,
            "target" : 34962
        },
        {
            "buffer" : 0,
            "byteLength" : 768,
            "byteOffset" : 1728,
            "target" : 34962
        },
        {
            "buffer" : 0,
            "byteLength" : 216,
            "byteOffset" : 2496,
            "target" : 34963
        },
        {
            "buffer" : 0,
            "byteLength" : 256,
            "byteOffset" : 2712
        },
        {
            "buffer" : 0,
            "byteLength" : 320,
            "byteOffset" : 2968
        },
        {
            "buffer" : 0,
            "byteLength" : 960,
            "byteOffset" : 3288
        },
        {
            "buffer" : 0,
            "byteLength" : 1280,
            "byteOffset" : 4248
        },
        {
            "buffer" : 0,
            "byteLength" : 960,
            "byteOffset" : 5528
        },
        {
            "buffer" : 0,
            "byteLength" : 960,
            "byteOffset" : 6488
        },
        {
            "buffer" : 0,
            "byteLength" : 1280,
            "byteOffset" : 7448
        },
        {
            "buffer" : 0,
            "byteLength" : 960,
            "byteOffset" : 8728
        },
        {
            "buffer" : 0,
            "byteLength" : 960,
            "byteOffset" : 9688
        },
        {
            "buffer" : 0,
            "byteLength" : 1280,
            "byteOffset" : 10648
        },
        {
            "buffer" : 0,
            "byteLength" : 960,
            "byteOffset" : 11928
        },
        {
            "buffer" : 0,
            "byteLength" : 960,
            "byteOffset" : 12888
        },
        {
            "buffer" : 0,
            "byteLength" : 1280,
            "byteOffset" : 13848
        },
        {
            "buffer" : 0,
            "byteLength" : 960,
            "byteOffset" : 15128
        }
    ],
    "buffers" : [
        {
            "byteLength" : 16088,
            "uri" : "moveCube.bin"
        }
    ]
}
